<?xml version="1.0" encoding="utf-8"?>
<!-- Generator: Adobe Illustrator 19.0.0, SVG Export Plug-In . SVG Version: 6.00 Build 0)  -->
<svg version="1.1" id="Capa_1" xmlns="http://www.w3.org/2000/svg" xmlns:xlink="http://www.w3.org/1999/xlink" x="0px" y="0px"
	 viewBox="-205 122.2 547.2 317.8" style="enable-background:new -205 122.2 547.2 317.8;" xml:space="preserve">
<style type="text/css">
	.st0{fill:#8222D2;}
</style>
<g>
	<path class="st0" d="M59.6,158.3c-1.2,0-2.1,1-2.1,2.1v208.5c0,1.2,1,2.1,2.1,2.1h37.9c1.2,0,2.1-1,2.1-2.1V160.4
		c0-1.2-1-2.1-2.1-2.1C97.5,158.3,59.6,158.3,59.6,158.3z"/>
	<path class="st0" d="M249,159.1c-4.4-0.5-8.8-0.8-13.2-0.8c-4.4,0-8.8,0.3-13.2,0.8c-53.2,6.6-93.2,52-93.2,105.6s40,99,93.2,105.6
		c4.4,0.5,8.8,0.8,13.2,0.8c4.4,0,8.8-0.3,13.2-0.8c53.2-6.6,93.2-52,93.2-105.6S302.2,165.7,249,159.1 M246.4,328
		c-3.5,0.6-7,0.9-10.6,0.9c-3.5,0-7.1-0.3-10.6-0.9l-0.9-0.1c-30.5-5.5-52.7-32.2-52.7-63.2c0-31.3,22.7-58.2,53.6-63.3
		c3.5-0.6,7-0.9,10.6-0.9c3.5,0,7.1,0.3,10.6,0.9l0.8,0.1c30.5,5.5,52.8,32.2,52.8,63.2C300,296,277.3,322.9,246.4,328"/>
	<path class="st0" d="M-176.3,122.2c-15.9,0-28.7,12.8-28.7,28.7c0,15.8,12.8,28.7,28.7,28.7c15.8,0,28.7-12.8,28.7-28.7
		C-147.7,135-160.5,122.2-176.3,122.2"/>
	<path class="st0" d="M-70.2,159.1c-4.4-0.5-8.8-0.8-13.2-0.8c-4.4,0-8.8,0.3-13.2,0.8c-53.2,6.6-93.2,52-93.2,105.6
		s40,99,93.2,105.6c4.4,0.5,8.8,0.8,13.2,0.8c4.4,0,8.8-0.3,13.2-0.8c53.2-6.6,93.2-52,93.2-105.6S-17,165.7-70.2,159.1 M-72.8,328
		c-3.5,0.6-7,0.9-10.6,0.9c-3.5,0-7.1-0.3-10.6-0.9l-0.9-0.1c-30.5-5.5-52.7-32.2-52.7-63.2c0-31.3,22.7-58.2,53.6-63.3
		c3.5-0.6,7-0.9,10.6-0.9c3.5,0,7.1,0.3,10.6,0.9l0.8,0.1c30.5,5.5,52.8,32.2,52.8,63.2C-19.2,296-41.9,322.9-72.8,328"/>
	<path class="st0" d="M185.3,401.3c0.7,0.9,0.6,2.2-0.3,2.9c-23.9,18.3-52.8,30.6-84.5,34.5c-7.2,0.9-14.5,1.3-21.7,1.3
		s-14.5-0.5-21.7-1.3c-31.8-3.9-60.7-16.3-84.7-34.6c-0.9-0.7-1-2-0.3-2.9l22.6-27.1c0.7-0.8,1.9-1,2.7-0.3
		c18.4,13.7,40.4,23,64.5,26c5.6,0.7,11.2,1,16.8,1c5.6,0,11.3-0.3,16.9-1c24.8-3.1,47.3-12.7,66-27.1L185.3,401.3z"/>
</g>
</svg>
