<?xml version="1.0" encoding="utf-8"?>
<!-- Generator: Adobe Illustrator 19.0.0, SVG Export Plug-In . SVG Version: 6.00 Build 0)  -->
<svg version="1.1" id="Capa_1" xmlns="http://www.w3.org/2000/svg" xmlns:xlink="http://www.w3.org/1999/xlink" x="0px" y="0px"
	 viewBox="-205 122.2 290 317.8" style="enable-background:new -205 122.2 290 317.8;" xml:space="preserve">
<style type="text/css">
	.st0{fill:#F8F9FA;}
</style>
<path class="st0" d="M-168.5,122.2c-20.2,0-36.5,16.3-36.5,36.5c0,20.1,16.3,36.5,36.5,36.5c20.1,0,36.5-16.3,36.5-36.5
	C-132.1,138.5-148.4,122.2-168.5,122.2"/>
<path class="st0" d="M-33.5,169.1c-5.6-0.6-11.2-1-16.8-1c-5.6,0-11.2,0.4-16.8,1c-67.7,8.4-118.5,66.1-118.5,134.3
	s50.9,125.9,118.5,134.3c5.6,0.6,11.2,1,16.8,1c5.6,0,11.2-0.4,16.8-1C34.1,429.4,85,371.6,85,303.5S34.1,177.5-33.5,169.1
	 M-36.9,384c-4.5,0.8-8.9,1.1-13.5,1.1c-4.5,0-9-0.4-13.5-1.1l-1.1-0.1c-38.8-7-67-41-67-80.4c0-39.8,28.9-74,68.2-80.5
	c4.5-0.8,8.9-1.1,13.5-1.1c4.5,0,9,0.4,13.5,1.1l1,0.1c38.8,7,67.2,41,67.2,80.4C31.3,343.3,2.5,377.5-36.9,384"/>
</svg>
