<?xml version="1.0" encoding="utf-8"?>
<!-- Generator: Adobe Illustrator 19.0.0, SVG Export Plug-In . SVG Version: 6.00 Build 0)  -->
<svg version="1.1" id="Capa_1" xmlns="http://www.w3.org/2000/svg" xmlns:xlink="http://www.w3.org/1999/xlink" x="0px" y="0px"
	 viewBox="-334 122.2 290 317.8" style="enable-background:new -334 122.2 290 317.8;" xml:space="preserve">
<style type="text/css">
	.st0{fill:url(#SVGID_1_);}
	.st1{fill:url(#SVGID_2_);}
</style>
<g>
	<linearGradient id="SVGID_1_" gradientUnits="userSpaceOnUse" x1="-297.5" y1="195.65" x2="-297.5" y2="122.65">
		<stop  offset="0" style="stop-color:#FFFFFF"/>
		<stop  offset="1" style="stop-color:#F2F3F4"/>
	</linearGradient>
	<path class="st0" d="M-261,159.2c-0.1-20.2-16.4-36.5-36.5-36.5c-20.2,0-36.5,16.3-36.5,36.5c0,20.1,16.3,36.5,36.5,36.5
		C-277.4,195.7-261,179.4-261,159.2z"/>
	<linearGradient id="SVGID_2_" gradientUnits="userSpaceOnUse" x1="-179.3" y1="439.15" x2="-179.3" y2="168.55">
		<stop  offset="0" style="stop-color:#FFFFFF"/>
		<stop  offset="1" style="stop-color:#F2F3F4"/>
	</linearGradient>
	<path class="st1" d="M-162.5,169.6c-5.6-0.6-11.2-1-16.8-1c-5.6,0-11.2,0.4-16.8,1c-67.7,8.4-118.5,66.1-118.5,134.3
		s50.9,125.9,118.5,134.3c5.6,0.6,11.2,1,16.8,1c5.6,0,11.2-0.4,16.8-1C-94.9,429.9-44,372.1-44,304S-94.9,178-162.5,169.6z
		 M-165.9,384.5c-4.5,0.8-8.9,1.1-13.5,1.1c-4.5,0-9-0.4-13.5-1.1l-1.1-0.1c-38.8-7-67-41-67-80.4c0-39.8,28.9-74,68.2-80.5
		c4.5-0.8,8.9-1.1,13.5-1.1c4.5,0,9,0.4,13.5,1.1l1,0.1c38.8,7,67.2,41,67.2,80.4C-97.7,343.8-126.5,378-165.9,384.5z"/>
</g>
</svg>
