<?xml version="1.0" encoding="utf-8"?>
<!-- Generator: Adobe Illustrator 19.0.0, SVG Export Plug-In . SVG Version: 6.00 Build 0)  -->
<svg version="1.1" id="Capa_1" xmlns="http://www.w3.org/2000/svg" xmlns:xlink="http://www.w3.org/1999/xlink" x="0px" y="0px"
	 viewBox="-205 122.2 154.7 317.8" style="enable-background:new -205 122.2 154.7 317.8;" xml:space="preserve">
<style type="text/css">
	.st0{fill:url(#SVGID_1_);}
	.st1{fill:url(#SVGID_2_);}
</style>
<linearGradient id="SVGID_1_" gradientUnits="userSpaceOnUse" x1="-86.8377" y1="195.2088" x2="-86.8377" y2="122.2">
	<stop  offset="0" style="stop-color:#FFFFFF"/>
	<stop  offset="1" style="stop-color:#F2F3F4"/>
</linearGradient>
<path class="st0" d="M-86.8,122.2c20.2,0,36.5,16.3,36.5,36.5c0,20.1-16.3,36.5-36.5,36.5c-20.1,0-36.5-16.3-36.5-36.5
	C-123.2,138.5-106.9,122.2-86.8,122.2"/>
<linearGradient id="SVGID_2_" gradientUnits="userSpaceOnUse" x1="-205" y1="438.7834" x2="-205" y2="168.1167">
	<stop  offset="0" style="stop-color:#FFFFFF"/>
	<stop  offset="1" style="stop-color:#F2F3F4"/>
</linearGradient>
<path class="st1" d="M-221.8,169.1c5.6-0.6,11.2-1,16.8-1c5.6,0,11.2,0.4,16.8,1c67.7,8.4,118.5,66.1,118.5,134.3
	s-50.9,125.9-118.5,134.3c-5.6,0.6-11.2,1-16.8,1c-5.6,0-11.2-0.4-16.8-1c-67.7-8.4-118.5-66.1-118.5-134.3
	S-289.5,177.5-221.8,169.1 M-218.5,384c4.5,0.8,8.9,1.1,13.5,1.1c4.5,0,9-0.4,13.5-1.1l1.1-0.1c38.8-7,67-41,67-80.4
	c0-39.8-28.9-74-68.2-80.5c-4.5-0.8-8.9-1.1-13.5-1.1c-4.5,0-9,0.4-13.5,1.1l-1,0.1c-38.8,7-67.2,41-67.2,80.4
	C-286.7,343.3-257.8,377.5-218.5,384"/>
</svg>
