<?xml version="1.0" encoding="utf-8"?>
<!-- Generator: Adobe Illustrator 19.0.0, SVG Export Plug-In . SVG Version: 6.00 Build 0)  -->
<svg version="1.1" id="Capa_1" xmlns="http://www.w3.org/2000/svg" xmlns:xlink="http://www.w3.org/1999/xlink" x="0px" y="0px"
	 viewBox="-402 122.2 154.7 317.8" style="enable-background:new -402 122.2 154.7 317.8;" xml:space="preserve">
<style type="text/css">
	.st0{opacity:0.1;fill:url(#SVGID_1_);}
	.st1{opacity:0.1;fill:url(#SVGID_2_);}
</style>
<linearGradient id="SVGID_1_" gradientUnits="userSpaceOnUse" x1="-283.8" y1="368.75" x2="-283.8" y2="441.75" gradientTransform="matrix(1 0 0 -1 0 564.4)">
	<stop  offset="0" style="stop-color:#FFFFFF"/>
	<stop  offset="1" style="stop-color:#F2F3F4"/>
</linearGradient>
<path class="st0" d="M-283.8,122.7c20.2,0,36.5,16.3,36.5,36.5c0,20.1-16.3,36.5-36.5,36.5c-20.1,0-36.5-16.3-36.5-36.5
	C-320.2,139-303.9,122.7-283.8,122.7"/>
<linearGradient id="SVGID_2_" gradientUnits="userSpaceOnUse" x1="-402" y1="125.25" x2="-402" y2="395.85" gradientTransform="matrix(1 0 0 -1 0 564.4)">
	<stop  offset="0" style="stop-color:#FFFFFF"/>
	<stop  offset="1" style="stop-color:#F2F3F4"/>
</linearGradient>
<path class="st1" d="M-418.8,169.6c5.6-0.6,11.2-1,16.8-1s11.2,0.4,16.8,1c67.7,8.4,118.5,66.1,118.5,134.3s-50.9,125.9-118.5,134.3
	c-5.6,0.6-11.2,1-16.8,1s-11.2-0.4-16.8-1c-67.7-8.4-118.5-66.1-118.5-134.3S-486.5,178-418.8,169.6 M-415.5,384.5
	c4.5,0.8,8.9,1.1,13.5,1.1c4.5,0,9-0.4,13.5-1.1l1.1-0.1c38.8-7,67-41,67-80.4c0-39.8-28.9-74-68.2-80.5c-4.5-0.8-8.9-1.1-13.5-1.1
	c-4.5,0-9,0.4-13.5,1.1l-1,0.1c-38.8,7-67.2,41-67.2,80.4C-483.7,343.8-454.8,378-415.5,384.5"/>
</svg>
