<?xml version="1.0" encoding="utf-8"?>
<!-- Generator: Adobe Illustrator 19.0.0, SVG Export Plug-In . SVG Version: 6.00 Build 0)  -->
<svg version="1.1" id="Capa_1" xmlns="http://www.w3.org/2000/svg" xmlns:xlink="http://www.w3.org/1999/xlink" x="0px" y="0px"
	 viewBox="-402 205.8 153.1 151.2" style="enable-background:new -402 205.8 153.1 151.2;" xml:space="preserve">
<style type="text/css">
	.st0{fill:#FAFAFA;}
	.st1{fill:#ECC4CD;}
	.st2{fill:#7D7DB4;}
	.st3{fill:#D48D9D;}
	.st4{fill:#B4BADE;}
	.st5{fill:#7027CC;}
	.st6{fill:#424565;}
	.st7{fill:#424566;}
	.st8{fill:#7E7EB5;}
	.st9{fill:#AFAFE3;}
	.st10{fill:#424466;}
	.st11{fill:#434567;}
	.st12{fill:#47496A;}
</style>
<g id="XMLID_212_">
	<path id="XMLID_144_" class="st0" d="M-271,324c-0.3-1.1,0.4-1.8,1.3-2.4c-4-6.1-8.2-12.1-13-17.7c-0.2-0.2-0.4-0.5-0.4-0.8
		c-2.8,0.5-5.3,1.9-7.8,3.3c-4.8,2.6-8.9,6.2-12.5,10.2c-1.5,1.6-2.2,3.3-1.5,5.4c3.3,4.3,5.3,9.2,6.8,14.4c0.2,0.8,0.5,1.6,0.7,2.5
		c0.4,0.2,0.7,0.5,1,0.8c0.4,0.4,0.8,0.7,1.3,1c1.8,1.3,4,2,6.1,2.5c1.1,0.3,2.1,0.5,3.2,1c0.3,0.1,0.6,0.3,0.9,0.4
		c1.8-1,3.6-1.9,5.1-3.1c4.1-3.2,7.2-7.2,9.9-11.5c0.8-1.3,1.2-2.9,0.9-4.5C-269.9,325.4-270.7,325.1-271,324 M-281.9,337.9
		c-1,0-1.9-0.9-1.9-1.9c0-1.1,0.8-1.9,1.9-1.9s1.9,0.8,1.9,1.9C-280,337-280.9,337.9-281.9,337.9 M-275.5,331.4
		c-1.1,0-1.9-0.9-1.9-1.9s1-1.9,2-1.9s1.8,0.9,1.8,2C-273.6,330.6-274.4,331.4-275.5,331.4"/>
	<path id="XMLID_141_" class="st1" d="M-352.4,281.6c-3.4,2.9-8.1,2.9-12.1-0.2c-4.2-3.2-8.3-6.7-11.9-10.6
		c-4.7-5.2-8.7-10.9-10.9-17.5c-0.7-2.1-0.9-4.3-1.2-6.5c-0.7-4.8-1.7-9.5-4.7-13.5c-2.1-2.8-4.7-5.1-7.1-7.6
		c-0.4-0.4-0.8-0.8-1.2-1.2c-0.6-0.5-0.5-0.9,0-1.4c1.4-1.3,2.8-2.6,4.2-3.8c3.3-2.9,6.6-5.7,9.8-8.6c1.6-1.4,3.3-2.8,4.8-4.3
		c0.9-0.8,1.4-0.6,2.1,0.1c3.1,3.4,6.4,6.7,9.7,10c2.5,2.5,5.6,3.9,9.2,3.8c6.5-0.3,11.8,2.4,16.5,6.6c3.2,2.9,6.3,6,9.4,9.1
		c1.3,1.3,2.5,2.9,3.7,4.3c1.6,1.8,0.9,3.3-0.5,4.3c-3,2.3-6.4,2.8-9.9,1.3c-0.5-0.2-1-0.6-1.6-0.6c-0.1-0.1-0.2-0.2-0.4-0.2
		l-0.1,0.1c0.1,0,0.3,0.1,0.4,0.1c0,0.7,0.6,1.1,1.1,1.5c4.5,4.5,9.1,8.9,13.7,13.4c2.9,2.8,2.5,7.3-0.6,9.5c-0.3,0-0.6-0.2-0.8-0.4
		c-2.4-2.4-5-4.6-7.5-6.9c-3.4-3.1-6.8-6.1-10.3-9.1c-0.9-0.8-2.3-1.4-2.5-2.9c-0.1-0.9-0.5-1.5-1.3-1.8c-0.7-0.3-1.3,0.2-1.8,0.6
		c-4.6,4.6-9.3,9.2-13.9,13.9c-0.8,0.8-1,1.7-0.1,2.7c3.5,4.1,7.2,8.1,11.3,11.6C-355.4,278.8-353.9,280.2-352.4,281.6 M-347,243
		c0,0.2,0.1,0.2,0.1,0.1C-346.9,243.1-347,243.1-347,243c-0.5-0.9-1.3-1.5-2.1-2.2c-1.1-0.9-2.4-1.5-3.9-1.2
		c-3.7,0.6-7.2,0.2-10.5-1.5c-0.5-0.3-1.1-0.8-1.7-0.3c-0.1,0.3-0.1,0.5,0.1,0.8c1.6,2.7,6.1,4.8,9.2,4.3c2.7-0.4,5.4-1.1,8.1,0.1
		C-347.6,243.1-347.3,243-347,243"/>
	<path id="XMLID_140_" class="st2" d="M-283.1,303.1c-2.8,0.5-5.3,1.9-7.8,3.3c-4.8,2.6-8.9,6.2-12.5,10.2c-1.4,1.6-2.2,3.3-1.5,5.4
		c-0.1,0-0.2,0.1-0.4,0.1c-1.3-1.3-3-2-4.5-3.1c-1.4-1.1-3-2.1-4.4-3.2c0.8-0.4,0.7-1.2,0.9-1.9c1-2.7,2.2-5.1,4.6-6.7
		c1.2-0.8,2.2-1.8,3.1-3c0.8-1.1,1.7-2.1,2.8-3c1.9-1.7,4.2-2.4,6.6-3.1c0.4,0.1,0.4,0.8,1,0.6l0,0c-0.1,0.2-0.1,0.4,0.1,0.5
		c0.1-0.2,0.2-0.3,0.2-0.5c2.7-2.6,5.8-3.8,9.6-3.5c0.7,0.1,1.3,0.1,1.7,0.9c0.9,2,2.1,3.9,2.7,6
		C-281.5,302.6-282.4,302.6-283.1,303.1"/>
	<path id="XMLID_139_" class="st3" d="M-352.4,281.6c-1.5-1.4-2.9-2.8-4.5-4.2c-4.1-3.6-7.8-7.5-11.3-11.6c-0.9-1.1-0.7-1.9,0.1-2.7
		c4.6-4.6,9.2-9.2,13.9-13.9c0.5-0.5,1.1-0.9,1.8-0.6c0.8,0.3,1.2,0.9,1.3,1.8c0.1,1.5,1.5,2.1,2.5,2.9c3.5,3,6.9,6,10.3,9.1
		c2.5,2.3,5.1,4.5,7.5,6.9c0.2,0.2,0.5,0.4,0.8,0.4c0.5,1,0.6,2.1,0,3.1c-1,0.2-1.9,0.1-2.6-0.6c-4.6-4.6-9.5-8.7-14.3-13
		c-1.9-1.7-3.8-3.3-5.7-5c-0.6-0.6-1.2-0.7-1.9,0.1c-0.8,0.9-1.7,1.8-2.7,2.7c-0.6,0.6-0.6,1,0,1.5c0.9,0.8,1.8,1.6,2.7,2.4
		c5.3,5.3,10.6,10.5,15.9,15.8c0.9,0.9,1.1,1.8,0.4,2.8c-0.8,0.6-1.7,0.3-2.5,0c-1.3-1.4-2.5-3-3.9-4.3c-4.2-3.9-8.2-8-12.3-12
		c-0.3-0.3-0.7-0.7-1-1c-2.4-2-2.4-2-4.7,0.2c-0.1,0.1-0.3,0.3-0.4,0.4c-1.7,1.7-1.7,1.7-0.2,3.6c1,1.2,2.1,2.3,3.2,3.5
		c3.1,3.2,6.4,6.2,9.8,9.1c0.7,0.6,1.2,1.3,0.9,2.3C-350.3,282.1-351.3,282.2-352.4,281.6"/>
	<path id="XMLID_138_" class="st4" d="M-283.1,303.1c0.7-0.6,1.6-0.5,2.3-1c1.8-0.3,3.6-0.1,5.3,0.5c2.8,1.6,4.8,4.1,6.9,6.4
		c2.3,2.5,4.2,5.2,6.1,8c1.9,2.8,2.6,5.6,1,8.7c-0.1,0.2-0.1,0.5-0.1,0.8c-0.7,0.1-0.8,0.8-1.1,1.3c-4,6.7-8.7,12.8-15.4,17
		c-0.2,0.1-0.2,0.3-0.2,0.5c-1.9,0.1-3.7,0.5-5.6-0.3c-0.3-0.1-0.7-0.3-1.2-0.5c1.9-1.1,3.8-1.9,5.4-3.2c4.1-3.2,7.2-7.2,9.9-11.5
		c0.8-1.3,1.2-2.9,0.9-4.5c1.1-0.3,1.8-1.1,1.5-2.3s-1.2-1.6-2.4-1.5c-4-6.1-8.2-12.1-13-17.7C-282.9,303.7-283.1,303.5-283.1,303.1
		"/>
	<path id="XMLID_137_" class="st5" d="M-263.1,282.3c0.2,1.4-0.4,3.4-0.4,5.4c0,1.1-0.6,1.8-1.7,1.9c-1,0.1-1.8-0.8-1.7-2
		c0.2-2.1,0.3-4.2,0.3-6.3c-0.2-14.3-4.9-27-14.1-37.9c-8.4-10-19-16.5-31.6-19.6c-0.3-0.1-0.6-0.2-0.9-0.3
		c-0.9-0.3-1.3-0.9-1.1-1.8c0.2-0.9,0.8-1.4,1.7-1.3c1.1,0.1,2.3,0.4,3.4,0.7c9.6,2.8,18.1,7.4,25.6,14.2c9.6,8.8,15.8,19.5,18.8,32
		C-263.7,272-263.2,276.8-263.1,282.3"/>
	<path id="XMLID_136_" class="st5" d="M-389.1,283.5c0-0.6,0-1.1,0.1-1.6c0.2-0.9,0.8-1.6,1.8-1.4c0.9,0.1,1.5,0.7,1.5,1.7
		c0.1,1.7,0.1,3.5,0.3,5.2c0.6,6.4,2.3,12.5,4.8,18.4c2.8,6.6,6.8,12.3,11.7,17.5c4,4.1,8.5,7.5,13.5,10.4c3,1.7,6.2,3.1,9.5,4.3
		c0.3,0.1,0.7,0.3,1,0.5c1,0.4,1.3,1.2,0.9,2.2s-1.2,1.2-2.2,0.8c-7.1-2.3-13.5-5.9-19.3-10.5c-7-5.5-12.5-12.4-16.6-20.2
		c-3-5.8-5-12-6.1-18.5C-388.7,289.2-388.8,286.3-389.1,283.5"/>
	<path id="XMLID_135_" class="st6" d="M-278.3,345.5c0-0.2,0-0.4,0.2-0.5c6.7-4.3,11.3-10.4,15.4-17c0.3-0.5,0.4-1.1,1.1-1.3
		c0.9,2.4,1.6,4.8,1.4,7.4c-0.1,0.8,0.4,1.1,0.9,1.6c3.1,3.3,6.3,6.5,9.4,9.8c1.6,1.7,1.6,2.7,0,4.3c-1.2,1.2-2.2,2.5-3.6,3.5
		c-3.4-3.6-6.8-7.2-10.3-11c-1.8,2-4.1,3-6.5,3.9C-273.1,346.6-275.7,346.4-278.3,345.5"/>
	<path id="XMLID_134_" class="st2" d="M-316.7,313.7c-2.2-1.4-4.1-3.2-6.1-4.9c-0.6-0.5-1.2-1-1.8-1.5c1-0.9,1-2.2,1.5-3.2
		c1.4-2.7,3.2-4.9,6.1-6c2,1.1,3.6,2.7,5.4,4c0.4,0.3,0.8,0.5,1.1,0.8c0.1,0.1,0.2,0.3,0.3,0.4c0.2-0.2,0.1-0.4-0.1-0.6
		c-1.5-2.2-3.5-4-4.9-6.3c1.8-4.6,5-7.7,9.9-8.8c2.4,2.3,4.6,4.8,6.7,7.5c-3.6,1.1-6.8,2.9-9.1,5.9c-1.3,1.7-2.7,3.2-4.3,4.6
		C-314.4,307.8-315.7,310.7-316.7,313.7"/>
	<path id="XMLID_133_" class="st1" d="M-338.2,279.4c0.6-1.1,0.5-1.9-0.4-2.8c-5.3-5.3-10.6-10.6-15.9-15.8
		c-0.9-0.8-1.8-1.6-2.7-2.4c-0.6-0.5-0.7-1,0-1.5c0.9-0.8,1.8-1.7,2.7-2.7c0.7-0.7,1.2-0.6,1.9-0.1c1.9,1.7,3.8,3.3,5.7,5
		c4.8,4.3,9.7,8.5,14.3,13c0.8,0.8,1.7,0.8,2.6,0.6c1.4,2.3,0.6,4.5-0.6,6c-1.3,1.6-3.6,2.1-5.8,1.4
		C-337,279.9-337.6,279.6-338.2,279.4"/>
	<path id="XMLID_132_" class="st7" d="M-275.5,302.7c-1.7-0.6-3.5-0.9-5.3-0.5c-0.7-2.1-1.8-4-2.7-6c-0.3-0.8-0.9-0.8-1.7-0.9
		c-3.7-0.3-6.9,0.9-9.6,3.5c-0.1,0-0.2,0-0.3,0l0,0c0-1.3-1-2.2-1-3.5c3-2.3,6.3-3.6,10.2-3.5c0.4,0.4,0.6,0.2,0.6-0.3
		c0-1.5,0-3,0-4.6c0-0.7,0.1-1.5,0.2-2.2c0.4-2.3,2.1-3.8,4.2-3.6c2.1,0.1,3.7,1.8,3.8,4.1c0.2,4.2,0.4,8.4,0.9,12.6
		C-275.9,299.4-275.7,301-275.5,302.7"/>
	<path id="XMLID_131_" class="st1" d="M-349.3,281.2c0.3-1-0.2-1.7-0.9-2.3c-3.4-3-6.7-5.9-9.8-9.1c-1.1-1.1-2.2-2.2-3.2-3.5
		c-1.5-1.9-1.5-1.8,0.2-3.6c0.1-0.1,0.3-0.3,0.4-0.4c2.3-2.3,2.3-2.3,4.7-0.2c0.4,0.3,0.7,0.7,1,1c4.1,4,8.1,8.1,12.3,12
		c1.4,1.3,2.6,2.9,3.9,4.3C-342.4,281.6-346.2,282.3-349.3,281.2"/>
	<path id="XMLID_130_" class="st2" d="M-302.7,337.6c-2.3,0.7-4.6,0.6-6.9,0.8c-2.8,0.2-5.5,0.3-8.3,0.1c-0.5-2.6-0.4-5.2-0.1-7.8
		c0.2-2,1.3-3.7,1.8-5.7l10.1-1c-0.6,2.2-0.8,4.5-0.4,6.8C-306.1,333.6-304.7,335.7-302.7,337.6"/>
	<path id="XMLID_129_" class="st8" d="M-321.8,337.4c-1.5-0.5-2.6-1.6-3.7-2.6c-2.9-2.4-5.5-5.1-7.7-8.1c-0.7-0.9-0.7-1.6,0-2.6
		c2.6-3.7,8-4.6,11.6-1.7c0.8,0.6,1.7,1.3,2.5,1.9c-1.3,1-1.4,2.6-1.9,4C-322,331.3-321.6,334.4-321.8,337.4"/>
	<path id="XMLID_128_" class="st8" d="M-327.2,304.8c-2.2-1.6-4.1-3.5-5.9-5.4c-1.9-2.1-1.7-5,0.1-7c2.1-2.3,5-2.7,7.4-1
		c1.9,1.3,3.8,2.7,5.4,4.3c-2.1,1.6-4.1,3.5-5.4,5.9C-326.1,302.5-326.6,303.7-327.2,304.8"/>
	<path id="XMLID_127_" class="st8" d="M-317.5,293.4c-1.5-1.7-2.7-3.5-3.8-5.4c-1.6-2.7-1-5.9,1.4-7.8c2.5-2,5.8-1.9,8.1,0.4
		c1.3,1.3,2.8,2.5,3.9,4.1c-0.1,0.1-0.1,0.2-0.2,0.3C-312.4,286.6-315.3,289.6-317.5,293.4"/>
	<path id="XMLID_126_" class="st9" d="M-270.5,346.2c2.4-0.9,4.6-1.9,6.5-3.9c3.5,3.7,6.9,7.4,10.3,11c-0.7,1.4-2,2.4-3.2,3.4
		c-0.9,0.6-1.9,0.5-2.7-0.3c-2.5-2.3-5-4.6-7.5-6.9C-268.2,348.3-269.6,347.5-270.5,346.2"/>
	<path id="XMLID_125_" class="st10" d="M-316.7,313.7c1.1-3,2.4-5.9,4.8-8c1.6-1.4,3-2.9,4.3-4.6c2.3-3,5.5-4.8,9.1-5.9
		c1,0.8,1.8,1.9,2.5,2.9c-2.4,0.7-4.7,1.4-6.6,3.1c-1,0.9-2,1.9-2.8,3c-0.9,1.2-1.9,2.2-3.1,3c-2.4,1.6-3.7,4.1-4.6,6.7
		c-0.2,0.7-0.1,1.5-0.9,1.9C-315,315.1-316,314.6-316.7,313.7"/>
	<path id="XMLID_124_" class="st7" d="M-302.7,337.6c-2-1.9-3.4-4-3.9-6.8c-0.4-2.3-0.2-4.6,0.4-6.8c0.3-0.6,0.7-1.3,1-1.9
		c0.1,0,0.2-0.1,0.4-0.1c3.3,4.3,5.3,9.2,6.8,14.4c0.3,1,0.6,2,0.9,3C-299.2,339.4-300.9,338.5-302.7,337.6"/>
	<path id="XMLID_123_" class="st2" d="M-285.9,291.7c-3.8-0.1-7.2,1.2-10.2,3.5c-1.2-2.2-1.9-4.6-2.9-7c0.6,0,0.9-0.5,1.3-0.8
		c2.4-1.8,5.1-2.8,8.2-2.4C-288.1,287.2-286.9,289.4-285.9,291.7"/>
	<path id="XMLID_122_" class="st8" d="M-300.2,285.1c-0.8-1-1.2-2.2-1.6-3.4c-0.8-2.2,0.2-4.5,2.2-5.6c2-1,4.6-0.5,5.9,1.4
		c0.9,1.3,1.6,2.7,2.3,4.1C-294.7,281.8-297.6,283.1-300.2,285.1"/>
	<path id="XMLID_121_" class="st11" d="M-321.8,337.4c0.1-3-0.3-6.1,0.7-9c0.5-1.4,0.6-3,1.9-4c0.9,0.4,1.8,0.7,2.8,0.7
		c-0.4,1.9-1.6,3.6-1.8,5.7c-0.2,2.6-0.4,5.2,0.1,7.8C-319.4,338.8-320.6,338.2-321.8,337.4"/>
	<path id="XMLID_120_" class="st11" d="M-317.5,293.4c2.2-3.8,5.1-6.8,9.3-8.4c0.1,0,0.1-0.2,0.2-0.3c1.2,0.8,2.1,1.8,2.9,3
		c-4.9,1.1-8.1,4.2-9.9,8.8C-316.1,295.6-316.9,294.5-317.5,293.4"/>
	<path id="XMLID_119_" class="st11" d="M-327.2,304.8c0.6-1.1,1.1-2.3,1.7-3.4c1.3-2.4,3.2-4.2,5.4-5.9c1.2,0.6,2.3,1.4,3.2,2.5
		c-3,1.1-4.7,3.3-6.1,6c-0.6,1.1-0.6,2.4-1.5,3.2C-325.5,306.5-326.5,305.9-327.2,304.8"/>
	<path id="XMLID_118_" class="st11" d="M-300.2,285.1c2.6-2.1,5.5-3.4,8.9-3.5c0.7,1.1,1.5,2.2,1.8,3.5c-3.1-0.5-5.8,0.5-8.2,2.4
		c-0.4,0.3-0.7,0.8-1.3,0.8C-299.4,287.3-300,286.3-300.2,285.1"/>
	<path id="XMLID_117_" class="st5" d="M-332.2,340.8c0.3,0,0.7,0,1.2,0.2c1,0.3,1.5,0.9,1.4,2s-0.8,1.4-1.8,1.3c-0.7,0-1.4,0-2-0.2
		c-1-0.2-1.6-0.8-1.5-1.9c0.1-1.1,0.9-1.5,1.9-1.4C-332.8,340.8-332.6,340.8-332.2,340.8"/>
	<path id="XMLID_116_" class="st5" d="M-331.8,219c1.1,0,2.1,0.1,2.2,1.5c0.1,1.1-0.6,1.8-2,2c-0.5,0.1-1,0.1-1.4,0
		c-0.8-0.1-1.6-0.3-1.7-1.3c-0.1-1.1,0.4-1.7,1.4-2C-332.8,219-332.3,219-331.8,219"/>
	<path id="XMLID_115_" class="st12" d="M-283.7,336c0-1.1,0.8-1.9,1.9-1.9c1.1,0,1.9,0.8,1.9,1.9c0,1-0.9,1.9-1.9,1.9
		C-282.9,337.9-283.7,337.1-283.7,336"/>
	<path id="XMLID_114_" class="st12" d="M-275.5,331.4c-1.1,0-1.9-0.9-1.9-1.9s1-1.9,2-1.9s1.8,0.9,1.8,2
		C-273.6,330.6-274.4,331.4-275.5,331.4"/>
	<path id="XMLID_113_" class="st12" d="M-269.7,321.6c1.2-0.1,2.1,0.3,2.4,1.5s-0.4,2-1.5,2.3c-1,0-1.8-0.4-2.1-1.4
		C-271.3,322.9-270.6,322.2-269.7,321.6"/>
	<path id="XMLID_112_" class="st3" d="M-347,243c-0.3,0-0.6,0.1-0.8,0c-2.7-1.2-5.4-0.5-8.1-0.1c-3.1,0.5-7.7-1.5-9.2-4.3
		c-0.1-0.2-0.2-0.5-0.1-0.8c0.6-0.5,1.2,0,1.7,0.3c3.3,1.7,6.9,2.1,10.5,1.5c1.5-0.3,2.8,0.3,3.9,1.2
		C-348.3,241.5-347.6,242.2-347,243L-347,243z"/>
	<path id="XMLID_111_" class="st0" d="M-344.2,245.3c-0.1,0-0.3-0.1-0.4-0.1l0.1-0.1C-344.4,245.1-344.3,245.2-344.2,245.3
		L-344.2,245.3z"/>
	<path id="XMLID_110_" class="st3" d="M-347,243.1l0.1,0.1C-346.9,243.2-347,243.2-347,243.1L-347,243.1z"/>
	<path id="XMLID_109_" class="st0" d="M-295.1,298.7c0.1,0,0.2,0,0.3,0c-0.1,0.2-0.2,0.3-0.2,0.5
		C-295.2,299.1-295.3,298.9-295.1,298.7"/>
	<path id="XMLID_108_" class="st0" d="M-310.2,302.7c0.2,0.2,0.3,0.4,0.1,0.6c-0.1-0.1-0.2-0.3-0.3-0.4
		C-310.3,302.9-310.3,302.8-310.2,302.7"/>
</g>
</svg>
