<?xml version="1.0" encoding="utf-8"?>
<!-- Generator: Adobe Illustrator 19.0.0, SVG Export Plug-In . SVG Version: 6.00 Build 0)  -->
<svg version="1.1" id="Capa_1" xmlns="http://www.w3.org/2000/svg" xmlns:xlink="http://www.w3.org/1999/xlink" x="0px" y="0px"
	 viewBox="-401 204.4 155.6 152.6" style="enable-background:new -401 204.4 155.6 152.6;" xml:space="preserve">
<style type="text/css">
	.st0{fill:#7E7EB5;}
	.st1{fill:#ECC4CD;}
	.st2{fill:#6CBEBE;}
	.st3{fill:#7027CC;}
	.st4{fill:#FCFCFC;}
</style>
<g id="XMLID_213_">
	<path id="XMLID_56_" class="st0" d="M-330.5,267.8c-6.4,0-12.7,0-19.1,0c-1.8,0-3.6,0.1-5.3-0.2c-3.8-0.5-6.5-3.9-6.5-8.3
		c0-5.3,0-10.5-0.1-15.8c0-0.6,0.1-1.3,0.1-1.9c0-9.5,0-19,0-28.5c0-5.6,3.2-8.8,8.8-8.8c18,0,36,0.1,54,0c5.2,0,8.9,3.7,8.8,8.8
		c-0.2,7.7,0,15.5,0,23.2c0,7.5-0.1,14.9,0,22.4c0.1,4-1.5,6.9-5.1,8.6c-1.5,0.4-3,0.4-4.5,0.4c-6,0-12,0-17.9-0.1
		c-0.1-0.8-0.1-1.6-0.2-2.3c-0.7-3.3-3.5-5.5-6.7-5.2c-3.2,0.2-5.7,2.8-5.9,6.1C-330.3,266.8-330.2,267.3-330.5,267.8 M-335.1,230.6
		c-0.6,0.1-1.2,0.1-1.7,0.2c-3.1,0.7-5.3,3.2-5.7,6.2c-0.4,3.3,1.2,6.3,4,7.7s6.2,0.9,8.5-1.3c0.7-0.7,1.2-0.7,2-0.4
		c3.4,1.4,6.8,2.7,10.3,4c0.9,0.3,1.4,0.8,1.7,1.8c0.7,2.4,3.2,3.6,5.5,2.8c1.7-0.6,2.7-1.8,2.9-3.6c0.2-1.8-0.4-3.2-1.9-4.2
		s-3.1-1-4.6-0.1c-0.6,0.3-1,0.8-1.8,0.5c-3.6-1.5-7.2-2.9-10.9-4.3c-0.7-0.3-1-0.6-0.9-1.4c0.2-1.2-0.1-2.3-0.6-3.4
		c-0.5-0.9-0.1-1.3,0.5-1.8c2.2-1.7,4.4-3.5,6.5-5.3c0.7-0.6,1.2-0.7,2.1-0.4c1.8,0.6,3.6,0.2,5-1.2c1.6-1.6,2-4.2,0.8-6.1
		c-1.2-2-3.6-2.9-5.8-2.2c-2.3,0.7-3.7,2.9-3.5,5.2c0.1,0.8,0.3,1.4-0.6,2.1c-2.4,1.8-4.7,3.8-7,5.7c-0.5,0.5-1,0.6-1.7,0.2
		C-332.9,230.9-334,230.6-335.1,230.6"/>
	<path id="XMLID_55_" class="st1" d="M-330.5,267.8c0.3-0.5,0.2-1,0.2-1.5c0.2-3.3,2.6-5.9,5.9-6.1c3.2-0.2,6,1.9,6.7,5.2
		c0.2,0.8,0.2,1.6,0.2,2.3c0.4,3.8,0.7,7.6,1,11.4c0.3,4.7,0.7,9.4,0.6,14.2c0,0.8,0.4,1.2,1.1,1.5c5.3,2.7,10.3,5.7,15.2,9
		c2.1,1.5,4.4,2.7,5.9,4.9c1.1,1.5,1.5,3.2,1.6,5c0.2,3.2,0.6,6.5,0.9,9.7c0.4,4.4,0.3,8.6-1.8,12.7c-1.4,2.6-3,5.2-3.6,8.2
		c-0.4,1.9-0.1,3.9-0.2,5.8c-0.1,1.3,0,2.5,0,3.8c0,2.1-0.9,3-3,3c-6.8,0-13.6,0-20.4,0c-2.5,0-5.1,0-7.6,0c-2.2,0-3.1-1-3.2-3.2
		c-0.2-3.3-0.3-6.7-0.9-10c-0.4-2.2-1.5-4-3.1-5.6c-2.1-2-4.1-4.1-5.8-6.4c-1.8-2.4-2.6-5-2.8-7.9c-0.3-4.1-0.9-8.2-1.2-12.3
		c-0.2-3.2-0.8-6.5-0.7-9.7c0-3.2,2.4-5.1,5.5-4.3c3.8,1.1,7,3,8.9,6.7c0.2,0.4,0.3,1.2,1,0.9c0.5-0.2,0.5-0.8,0.4-1.3
		c-0.5-1.9-0.2-3.9-0.2-5.8c-0.1-3.8,0.1-7.7-0.1-11.5C-330.5,280.3-330.4,274.1-330.5,267.8"/>
	<path id="XMLID_48_" class="st2" d="M-295,267.4c3.6-1.7,5.2-4.6,5.1-8.6c-0.1-7.5,0-14.9,0-22.4c12.3-0.7,24.5-0.2,36.8-0.3
		c3.8,0,7,3,7.5,6.8c0.2,1.3,0.2,2.5,0.2,3.8c0,14.3,0,28.6,0,42.8c0,4.2-2.2,7.3-5.9,8.4c-0.8,0.2-1.6,0.2-2.3,0.2
		c-11.1,0-22.1-0.1-33.2,0c-4.1,0-8.2-3-8.2-8.2C-295,282.5-295,274.9-295,267.4 M-265.9,273c0,4.4,0,8.8,0,13.3
		c0,1,0.2,1.4,1.3,1.4c1.6-0.1,3.3-0.1,4.9,0c0.8,0,1.1-0.3,1.1-1.1c0-9,0-17.9,0-26.9c0-0.9-0.4-1.2-1.2-1.1c-1.5,0-3.1,0.1-4.6,0
		c-1.2-0.1-1.5,0.3-1.5,1.5C-265.9,264.4-265.9,268.7-265.9,273 M-281.7,279.8c0,2.3,0,4.5,0,6.8c0,0.7,0.2,1.1,1,1.1
		c1.8,0,3.6,0,5.4,0c0.7,0,0.9-0.3,0.9-0.9c0-4.5,0-9.1,0-13.6c0-0.8-0.3-1-1-1c-1.7,0-3.4,0-5.1,0c-0.9,0-1.2,0.3-1.2,1.2
		C-281.7,275.5-281.7,277.6-281.7,279.8 M-273,247.5c2,0,4,0,6,0c1.1,0,1.9-0.5,2-1.6c0.1-0.9-0.8-1.6-2.1-1.6c-4,0-7.9,0-11.9,0
		c-1.1,0-1.8,0.4-1.8,1.6s0.8,1.6,1.9,1.6C-276.9,247.5-275,247.5-273,247.5 M-276.4,252.9c-0.8,0-1.7,0-2.5,0c-1,0-1.9,0.3-1.9,1.6
		c0,1.2,0.8,1.7,1.8,1.8c1.5,0.1,3.1,0,4.6,0c0.4,0,0.7-0.1,1.1-0.2c1-0.3,1.3-1.1,1.1-2c-0.2-0.9-0.7-1.2-1.6-1.2
		C-274.7,252.9-275.5,252.9-276.4,252.9 M-258.6,247.8c1,0,1.9-0.9,1.8-2c0-1-1-1.8-2-1.8s-1.8,0.9-1.8,2
		C-260.5,247-259.6,247.8-258.6,247.8"/>
	<path id="XMLID_45_" class="st3" d="M-361.5,243.6c0,5.3,0,10.5,0.1,15.8c0,4.3,2.7,7.7,6.5,8.3c1.8,0.2,3.6,0.1,5.3,0.2
		c0,5.8,0,11.7,0,17.5c0,1.9-0.2,3.8-1.3,5.4c-1.6,2.4-3.9,3.6-6.8,3.5c-10.1,0-20.2,0-30.4,0c-1.6,0-3.2,0-4.7,0
		c-4.7-0.1-8-3.2-8.1-7.9c-0.1-11.5-0.1-23.1,0-34.7c0-5.6,4.5-8.1,8.4-8.1C-382.2,243.7-371.8,243.6-361.5,243.6 M-382.7,268.9
		c0,2.5,0,4.9,0,7.4c0,1.7,0.9,2.2,2.3,1.3c3.9-2.4,7.7-4.8,11.5-7.2c1.5-0.9,1.5-1.9,0-2.8c-3.8-2.4-7.6-4.8-11.5-7.2
		c-1.5-0.9-2.4-0.4-2.4,1.4C-382.7,264.2-382.7,266.5-382.7,268.9"/>
	<path id="XMLID_44_" class="st4" d="M-335.1,230.6c1.1,0,2.2,0.3,3.2,0.8c0.7,0.4,1.1,0.2,1.7-0.2c2.3-1.9,4.6-3.9,7-5.7
		c0.8-0.6,0.7-1.3,0.6-2.1c-0.2-2.4,1.2-4.5,3.5-5.2c2.1-0.7,4.6,0.2,5.8,2.2c1.2,1.9,0.9,4.5-0.8,6.1c-1.4,1.4-3.1,1.8-5,1.2
		c-0.9-0.3-1.4-0.1-2.1,0.4c-2.1,1.8-4.3,3.6-6.5,5.3c-0.7,0.5-1,0.9-0.5,1.8c0.5,1,0.8,2.2,0.6,3.4c-0.1,0.8,0.2,1.1,0.9,1.4
		c3.6,1.4,7.3,2.8,10.9,4.3c0.8,0.3,1.2-0.1,1.8-0.5c1.5-0.9,3.1-0.9,4.6,0.1s2.2,2.4,1.9,4.2c-0.2,1.8-1.2,3-2.9,3.6
		c-2.3,0.8-4.8-0.4-5.5-2.8c-0.3-1-0.8-1.4-1.7-1.8c-3.4-1.3-6.9-2.7-10.3-4c-0.8-0.3-1.3-0.3-2,0.4c-2.3,2.3-5.7,2.7-8.5,1.3
		c-2.9-1.4-4.4-4.4-4-7.7c0.4-3,2.6-5.5,5.7-6.2C-336.3,230.7-335.7,230.7-335.1,230.6"/>
	<path id="XMLID_43_" class="st4" d="M-265.9,273c0-4.3,0-8.6,0-13c0-1.2,0.3-1.6,1.5-1.5c1.5,0.1,3.1,0.1,4.6,0
		c0.9,0,1.2,0.2,1.2,1.1c0,9,0,17.9,0,26.9c0,0.8-0.2,1.1-1.1,1.1c-1.6,0-3.3-0.1-4.9,0c-1.1,0.1-1.3-0.4-1.3-1.4
		C-265.9,281.9-265.9,277.4-265.9,273"/>
	<path id="XMLID_42_" class="st4" d="M-281.7,279.8c0-2.2,0-4.3,0-6.5c0-0.9,0.3-1.2,1.2-1.2c1.7,0.1,3.4,0,5.1,0c0.7,0,1,0.2,1,1
		c0,4.5,0,9.1,0,13.6c0,0.7-0.3,0.9-0.9,0.9c-1.8,0-3.6,0-5.4,0c-0.8,0-1-0.4-1-1.1C-281.7,284.3-281.7,282-281.7,279.8"/>
	<path id="XMLID_41_" class="st4" d="M-273,247.5c-2,0-3.9,0-5.9,0c-1.1,0-1.9-0.3-1.9-1.6c0-1.2,0.7-1.6,1.8-1.6c4,0,7.9,0,11.9,0
		c1.2,0,2.2,0.7,2.1,1.6c-0.2,1.1-0.9,1.6-2,1.6C-269,247.5-271,247.5-273,247.5"/>
	<path id="XMLID_40_" class="st4" d="M-276.4,252.9h2.5c0.8,0,1.4,0.4,1.6,1.2c0.2,0.9-0.1,1.7-1.1,2c-0.3,0.1-0.7,0.2-1.1,0.2
		c-1.5,0-3.1,0.1-4.6,0c-1-0.1-1.8-0.6-1.8-1.8c0-1.3,0.9-1.6,1.9-1.6C-278,252.8-277.2,252.9-276.4,252.9"/>
	<path id="XMLID_39_" class="st4" d="M-258.6,247.8c-1.1,0-1.9-0.7-1.9-1.8c0-1.1,0.8-2,1.8-2s2,0.8,2,1.8S-257.6,247.8-258.6,247.8
		"/>
	<path id="XMLID_38_" class="st4" d="M-382.7,268.9c0-2.4,0-4.7,0-7.1c0-1.8,0.9-2.3,2.4-1.4c3.8,2.4,7.7,4.8,11.5,7.2
		c1.4,0.9,1.4,1.8,0,2.8c-3.8,2.4-7.6,4.8-11.5,7.2c-1.4,0.9-2.3,0.4-2.3-1.3C-382.7,273.9-382.7,271.4-382.7,268.9"/>
</g>
</svg>
