<?xml version="1.0" encoding="utf-8"?>
<!-- Generator: Adobe Illustrator 19.0.0, SVG Export Plug-In . SVG Version: 6.00 Build 0)  -->
<svg version="1.1" id="Capa_1" xmlns="http://www.w3.org/2000/svg" xmlns:xlink="http://www.w3.org/1999/xlink" x="0px" y="0px"
	 viewBox="-403 205.4 151.3 150.6" style="enable-background:new -403 205.4 151.3 150.6;" xml:space="preserve">
<style type="text/css">
	.st0{fill:#F3F8FD;}
	.st1{fill:#7D7DB4;}
	.st2{fill:#7027CC;}
	.st3{fill:#6CBEBE;}
	.st4{fill:#B4BADE;}
	.st5{fill:#53918D;}
	.st6{fill:#424566;}
	.st7{fill:#9BB937;}
	.st8{enable-background:new    ;}
	.st9{fill:#FAFAFA;}
	.st10{fill:none;stroke:#FAFAFA;stroke-miterlimit:10;}
</style>
<g id="XMLID_216_">
	<path id="XMLID_32_" class="st0" d="M-308.2,289.8c-5.4-2.1-10.2-5.2-14-9.5c-1.6-1.9-3-2.2-5.2-1.6c-2.3,0.6-4.8,0.7-7.1,1.3
		c-1.5,0.2-3,0.4-4.6,0.6c0.5-1.3,1.5-2.2,2-3.4c2-2.9,4.1-5.9,6.1-8.8c0.4-0.5,0.2-1,0-1.5c-2.5-6-3.3-12.2-2.9-18.7
		c0.1-1.2,0.2-2.4,0.3-3.6c0.5-1.8,0.9-3.5,1.4-5.3c1.3-4.7,3.8-8.8,6.4-12.8c5.2-6.5,11.5-11.4,19.5-14c14.7-4.7,28.2-2.3,40.1,7.6
		c8.1,6.8,12.8,15.5,14.1,26c1.5,11.6-1.5,22-8.7,31.2c-2.8,3.6-6.3,6.7-10.2,9c-1.7-1.7-3.8-2.6-5.9-3.4c-4.8-2-9.9-2.6-15-1.9
		c-4.1,0.6-8,2-11.5,4.3C-305.2,286.6-307.2,287.7-308.2,289.8 M-281.7,227.6c-3.8,4.3-7.3,8.4-10.8,12.5c-0.7,0.8-1.1,0.7-1.8,0.1
		c-1.3-1.1-2.7-2.2-4-3.3c-1.4-1.1-2.1-1-3.2,0.3c-1.6,1.8-3.2,3.6-4.8,5.4c-2.3,2.6-4.6,5.2-6.9,7.8c-0.9,1.1-0.9,2.3,0,3.1
		c0.9,0.7,1.9,0.5,2.9-0.6c0.7-0.8,1.5-1.7,2.2-2.5c2.5-2.9,5.1-5.8,7.6-8.7c0.7-0.8,1.2-0.9,2.1-0.2c1.1,1,2.3,1.9,3.4,2.8
		c2,1.6,2.7,1.4,4.3-0.5c3.5-4.1,7.1-8.1,10.6-12.1c0.5-0.5,0.8-0.8,1.3-0.1c0.5,0.8,1.4,1,2.2,0.7c0.9-0.3,1.3-1.1,1.3-2
		c0.1-1.5,0.1-3.1,0-4.6c-0.1-1.1-0.7-2.1-1.9-2.1c-1.7-0.1-3.4-0.1-5.1,0c-1.4,0.1-2.2,1.4-1.7,2.6
		C-283.7,227.3-282.9,227.6-281.7,227.6 M-271.2,255.5c0-4.5,0-9.1,0-13.6c0-1.1-0.3-1.5-1.4-1.5c-1.7,0.1-3.5,0.1-5.2,0
		c-0.9,0-1.3,0.2-1.3,1.2c0,9.2,0,18.4,0,27.7c0,1,0.4,1.2,1.3,1.2c1.7,0,3.5-0.1,5.2,0c1.2,0.1,1.4-0.4,1.4-1.5
		C-271.3,264.6-271.2,260-271.2,255.5 M-296.5,261.5c0,2.6,0,5.2,0,7.7c0,0.9,0.3,1.3,1.2,1.3c1.8-0.1,3.7-0.1,5.5,0
		c0.9,0,1.2-0.3,1.2-1.2c0-5.2,0-10.4,0-15.6c0-0.9-0.2-1.2-1.2-1.2c-1.8,0.1-3.7,0.1-5.5,0c-1,0-1.3,0.4-1.2,1.3
		C-296.5,256.4-296.5,258.9-296.5,261.5 M-313.9,265.7c0,1.2,0,2.4,0,3.6c0,0.9,0.3,1.2,1.2,1.2c1.8,0,3.7,0,5.5,0
		c0.8,0,1.2-0.2,1.2-1.1c0-2.4,0-4.8,0-7.3c0-0.8-0.3-1.1-1.1-1.1c-1.9,0-3.8,0-5.7,0c-0.9,0-1.2,0.4-1.1,1.2
		C-313.9,263.4-313.9,264.6-313.9,265.7"/>
	<path id="XMLID_29_" class="st1" d="M-337.1,277.2c-0.5,1.2-1.6,2.1-2,3.4c1.6-0.2,3.1-0.4,4.6-0.6c2.8,3.4,4.9,7.2,6.2,11.4
		c1.6,5.5,1.6,11.1,0.1,16.6c-1.2,4.2-3.2,8-5.4,11.7c-1.4,2.5-1.9,5-0.9,7.8c1.2,3.5,2.4,7,3.5,10.5c0.7,2.2,0.3,3.3-1.8,4.4
		c-8.9,4.4-17.7,8.8-26.6,13.2c-1.6,0.8-2.9,0.3-3.7-1.2c-0.8-1.7-2-3.4-2.4-5.3c2-1.8,3.9-3.6,5.9-5.4c0.8-0.7,1.6-1.3,1.3-2.5
		c-0.4-1.3-1.5-1.4-2.6-1.4c-3.8,0-7.6,0-11.3,0c-0.5,0-1-0.2-1.3,0.3c-4.5-0.5-8.9-0.3-13.4-0.2c-4.3,0.1-6.5-1.8-6.9-6.5
		c-0.7-5-1.5-10-2.2-15.1c-0.5-3.4-2.7-5.8-5.2-7.8c-2.2-1.8-2.4-4.2-0.3-6c2-1.9,4.3-3.4,6.7-4.7c1.8-1,2.9-2.5,3.6-4.4
		c1.8-4.8,4-9.4,7.2-13.4c5-6.4,11.5-10.4,19.4-12.1c5.9-1.2,11.7-0.9,17.4,1.2C-343.4,272.5-340.2,274.7-337.1,277.2 M-359.9,277.8
		c-1.9-0.2-4,0.3-6.1,0.9c-2.5,0.8-3.8,2.8-4.2,5.2c-0.4,2.5,0.3,4.8,2.5,6.4c2.6,2,5.3,3.9,8,5.9c4.5,3.3,8.9,6.7,13.4,9.9
		c4.1,2.9,9.4,1,10.7-3.8c0.4-1.5,0.2-3.1-0.1-4.7C-337.7,286.4-347.7,277.7-359.9,277.8"/>
	<path id="XMLID_28_" class="st2" d="M-274.1,288.3c3.7,2.7,6.7,5.9,8.8,10c7.7,15.4-1.5,33.7-18.4,36.9c-12.3,2.3-24.3-4.9-28.4-16
		c-1.1-2.9-3.4-4.8-5.1-7.1c-1-1.3-2.1-2.6-3.3-4c1.6-0.3,3-0.1,4.4-0.2c2.2,0,2.1,0,2.5-2.2c0.9-5.2,3.2-9.7,6.8-13.5
		c0.4-0.4,0.8-0.8,1.2-1.3c0.5-0.1,0.8-0.5,1.1-0.8c5.6-4.4,11.9-6.4,19-5.6C-281.4,284.8-277.6,286.3-274.1,288.3"/>
	<path id="XMLID_27_" class="st3" d="M-336.4,246.6c-2.4,1.6-5.1,2.5-7.9,3c-0.9,0.2-1.6,0.5-2.2,1.1c-2,2-4,4-6,6
		c-0.4,0.4-0.6,0.9-1.3,1c-0.2-2.6-0.5-5.1-0.6-7.7c-0.1-0.8-0.4-1.1-1.1-1.4c-9.8-3.7-15.5-12.6-14.7-23c0.7-9.9,8.8-18.5,18.7-20
		c11-1.6,21.4,4.7,24.7,15.2c0.2,0.6,0.3,1.3,0.5,2c-5.2,6-8.4,12.9-9.9,20.6C-336.4,244.4-337,245.5-336.4,246.6"/>
	<path id="XMLID_26_" class="st4" d="M-274.1,288.3c-3.5-2-7.3-3.5-11.4-3.9c-7.1-0.7-13.4,1.2-19,5.6c-0.4,0.3-0.7,0.7-1.1,0.8
		c-0.9-0.3-1.7-0.7-2.6-1c1-2.1,3-3.2,4.9-4.5c3.5-2.3,7.4-3.7,11.5-4.3c5.2-0.7,10.2-0.1,15,1.9c2.1,0.9,4.3,1.7,5.9,3.4
		C-271.8,287.2-273,287.7-274.1,288.3"/>
	<path id="XMLID_25_" class="st5" d="M-336.4,246.6c-0.6-1.1-0.1-2.1,0.1-3.1c1.5-7.7,4.7-14.6,9.9-20.6c0.5,1.2,0.4,2.5,0.7,3.7
		c-2.7,4-5.1,8.1-6.4,12.8c-0.5,1.8-1,3.5-1.4,5.3C-334.5,245.3-335.3,246.1-336.4,246.6"/>
	<path id="XMLID_24_" class="st6" d="M-373.7,340.1c0.4-0.4,0.9-0.2,1.3-0.3c3.8,0,7.6,0,11.3,0c1.2,0,2.3,0.1,2.6,1.4
		c0.3,1.2-0.5,1.8-1.3,2.5c-2,1.7-3.9,3.6-5.9,5.4c-1.2-1.3-1.7-3.1-2.5-4.6C-369.3,342.1-371.1,340.7-373.7,340.1"/>
	<path id="XMLID_23_" class="st7" d="M-281.7,227.6c-1.2,0-2-0.3-2.4-1.2c-0.5-1.2,0.3-2.5,1.7-2.6c1.7-0.1,3.4-0.1,5.1,0
		c1.3,0.1,1.9,1,1.9,2.1c0.1,1.5,0.1,3.1,0,4.6c0,0.9-0.4,1.7-1.3,2s-1.7,0.1-2.2-0.7s-0.8-0.5-1.3,0.1c-3.5,4-7.1,8.1-10.6,12.1
		c-1.6,1.9-2.3,2-4.3,0.5c-1.2-0.9-2.4-1.8-3.4-2.8c-0.8-0.8-1.4-0.6-2.1,0.2c-2.5,2.9-5,5.8-7.6,8.7c-0.7,0.8-1.4,1.7-2.2,2.5
		c-1,1.1-2,1.3-2.9,0.6c-0.9-0.8-0.9-2,0-3.1c2.3-2.6,4.6-5.2,6.9-7.8c1.6-1.8,3.2-3.7,4.8-5.4c1.2-1.3,1.9-1.3,3.2-0.3
		c1.4,1.1,2.7,2.1,4,3.3c0.7,0.6,1.1,0.7,1.8-0.1C-289,236-285.4,231.9-281.7,227.6"/>
	<path id="XMLID_22_" class="st3" d="M-271.2,255.5c0,4.5,0,9.1,0,13.6c0,1.1-0.2,1.5-1.4,1.5c-1.7-0.1-3.5-0.1-5.2,0
		c-0.9,0-1.3-0.2-1.3-1.2c0-9.2,0-18.4,0-27.7c0-1,0.4-1.2,1.3-1.2c1.7,0,3.5,0.1,5.2,0c1.1-0.1,1.4,0.4,1.4,1.5
		C-271.3,246.4-271.2,251-271.2,255.5"/>
	<path id="XMLID_21_" class="st3" d="M-296.5,261.5c0-2.6,0-5.2,0-7.7c0-0.9,0.2-1.3,1.2-1.3c1.8,0.1,3.7,0.1,5.5,0
		c0.9,0,1.2,0.3,1.2,1.2c0,5.2,0,10.4,0,15.6c0,0.9-0.2,1.2-1.2,1.2c-1.8-0.1-3.7-0.1-5.5,0c-1,0-1.3-0.4-1.2-1.3
		C-296.5,266.7-296.5,264.1-296.5,261.5"/>
	<path id="XMLID_20_" class="st3" d="M-313.9,265.7c0-1.2,0-2.3,0-3.5c0-0.8,0.2-1.2,1.1-1.2c1.9,0.1,3.8,0,5.7,0
		c0.8,0,1.1,0.3,1.1,1.1c0,2.4,0,4.8,0,7.3c0,0.9-0.4,1.2-1.2,1.1c-1.8,0-3.7,0-5.5,0c-0.9,0-1.2-0.3-1.2-1.2
		C-313.9,268.2-313.9,266.9-313.9,265.7"/>
	<path id="XMLID_19_" class="st0" d="M-359.9,277.8c12.2-0.1,22.1,8.6,24.1,20c0.3,1.6,0.5,3.1,0.1,4.7c-1.3,4.7-6.6,6.7-10.7,3.8
		c-4.5-3.2-9-6.6-13.4-9.9c-2.7-2-5.3-3.9-8-5.9c-2.1-1.6-2.9-3.9-2.5-6.4c0.4-2.4,1.7-4.4,4.2-5.2
		C-363.9,278.1-361.8,277.6-359.9,277.8"/>
	<g class="st8">
		<path class="st9" d="M-291.1,320c-0.9,0-1.8-0.2-2.6-0.5c-0.8-0.3-1.5-0.7-2.1-1.3s-1-1.2-1.4-1.9c-0.3-0.7-0.5-1.5-0.5-2.4
			c0-0.9,0.2-1.7,0.6-2.5c0.4-0.8,1-1.4,1.7-2c0.7-0.5,1.6-1,2.6-1.3c1-0.3,2.1-0.5,3.3-0.5c0.9,0,1.7,0.1,2.5,0.2
			c0.8,0.1,1.5,0.4,2.2,0.6v-1.1c0-1.3-0.4-2.2-1.1-2.9c-0.7-0.7-1.8-1-3.2-1c-1,0-2,0.2-3,0.5c-1,0.4-2,0.9-3,1.6l-1.5-3.1
			c2.5-1.6,5.1-2.4,8-2.4c2.8,0,4.9,0.7,6.4,2c1.5,1.4,2.3,3.3,2.3,5.9v6c0,0.5,0.1,0.9,0.3,1.1s0.5,0.3,0.9,0.4v4.2
			c-0.8,0.2-1.5,0.3-2.2,0.3c-0.9,0-1.6-0.2-2.1-0.6c-0.5-0.4-0.8-1-0.9-1.6l-0.1-1.1c-0.9,1.1-1.9,2-3.1,2.6
			C-288.4,319.7-289.7,320-291.1,320z M-289.7,316.4c0.8,0,1.6-0.1,2.4-0.4c0.7-0.3,1.3-0.7,1.7-1.2c0.5-0.4,0.8-0.9,0.8-1.4v-2.2
			c-0.6-0.2-1.2-0.4-1.9-0.5c-0.7-0.1-1.3-0.2-2-0.2c-1.3,0-2.3,0.3-3.1,0.9c-0.8,0.6-1.2,1.3-1.2,2.2c0,0.8,0.3,1.5,0.9,2.1
			C-291.4,316.1-290.7,316.4-289.7,316.4z"/>
	</g>
	<path id="XMLID_10_" class="st9" d="M-359.9,223.8c1.4,0.6,3.2,1.6,4.1,2.4l-1,1.2c-0.8-0.8-2.6-1.9-4-2.5L-359.9,223.8z
		 M-360.2,237.5c1.1-1.8,2.7-4.9,3.8-7.6l1.2,0.9c-1,2.5-2.5,5.4-3.5,7.1c0.1,0.1,0.1,0.2,0.1,0.3s0,0.2-0.1,0.3L-360.2,237.5z
		 M-358.7,217.5c1.4,0.7,3.2,1.7,4,2.6l-0.9,1.2c-0.8-0.8-2.5-2-4-2.7L-358.7,217.5z M-339.4,234.1h-6.3c1.3,1.8,3.6,3,6.5,3.5
		c-0.3,0.3-0.7,0.9-1,1.3c-3.2-0.7-5.7-2.3-7.1-4.7h-0.2c-1,1.9-3,3.5-6.9,4.7c-0.2-0.3-0.6-0.9-1-1.2c3.3-0.9,5.1-2.2,6.1-3.5h-5.6
		v-1.3h6.4c0.2-0.6,0.3-1.1,0.4-1.7h-5.8v-1.3h5.8v-1.7h-5.1v-5h12v5h-5.4v1.7h6.1v1.3h-6.1c0,0.6-0.2,1.2-0.3,1.7h7.5
		C-339.4,232.9-339.4,234.1-339.4,234.1z M-350.7,222.6v-1.8h-4v-1.3h4v-2.2l1.9,0.1c0,0.2-0.1,0.3-0.4,0.3v1.8h4.1v-2.2l1.9,0.1
		c0,0.2-0.1,0.3-0.4,0.3v1.8h4.3v1.3h-4.3v1.8h-1.5v-1.8h-4.1v1.8C-349.2,222.6-350.7,222.6-350.7,222.6z M-351.7,226.9h3.7v-2.6
		h-3.7V226.9z M-342.6,224.3h-3.9v2.6h3.9V224.3z"/>
	<path id="XMLID_2_" class="st10" d="M-359.9,223.8c1.4,0.6,3.2,1.6,4.1,2.4l-1,1.2c-0.8-0.8-2.6-1.9-4-2.5L-359.9,223.8z
		 M-360.2,237.5c1.1-1.8,2.7-4.9,3.8-7.6l1.2,0.9c-1,2.5-2.5,5.4-3.5,7.1c0.1,0.1,0.1,0.2,0.1,0.3s0,0.2-0.1,0.3L-360.2,237.5z
		 M-358.7,217.5c1.4,0.7,3.2,1.7,4,2.6l-0.9,1.2c-0.8-0.8-2.5-2-4-2.7L-358.7,217.5z M-339.4,234.1h-6.3c1.3,1.8,3.6,3,6.5,3.5
		c-0.3,0.3-0.7,0.9-1,1.3c-3.2-0.7-5.7-2.3-7.1-4.7h-0.2c-1,1.9-3,3.5-6.9,4.7c-0.2-0.3-0.6-0.9-1-1.2c3.3-0.9,5.1-2.2,6.1-3.5h-5.6
		v-1.3h6.4c0.2-0.6,0.3-1.1,0.4-1.7h-5.8v-1.3h5.8v-1.7h-5.1v-5h12v5h-5.4v1.7h6.1v1.3h-6.1c0,0.6-0.2,1.2-0.3,1.7h7.5
		C-339.4,232.9-339.4,234.1-339.4,234.1z M-350.7,222.6v-1.8h-4v-1.3h4v-2.2l1.9,0.1c0,0.2-0.1,0.3-0.4,0.3v1.8h4.1v-2.2l1.9,0.1
		c0,0.2-0.1,0.3-0.4,0.3v1.8h4.3v1.3h-4.3v1.8h-1.5v-1.8h-4.1v1.8C-349.2,222.6-350.7,222.6-350.7,222.6z M-351.7,226.9h3.7v-2.6
		h-3.7V226.9z M-342.6,224.3h-3.9v2.6h3.9V224.3z"/>
</g>
</svg>
