<?xml version="1.0" encoding="utf-8"?>
<!-- Generator: Adobe Illustrator 19.0.0, SVG Export Plug-In . SVG Version: 6.00 Build 0)  -->
<svg version="1.1" id="Capa_1" xmlns="http://www.w3.org/2000/svg" xmlns:xlink="http://www.w3.org/1999/xlink" x="0px" y="0px"
	 viewBox="-407 209.5 144.1 143.5" style="enable-background:new -407 209.5 144.1 143.5;" xml:space="preserve">
<style type="text/css">
	.st0{fill:#6CBEBE;}
	.st1{fill:#ECC4CD;}
	.st2{fill:#9BB937;}
	.st3{fill:#7027CC;}
	.st4{fill:#89A12C;}
	.st5{fill:#569793;}
	.st6{fill:#D48D9D;}
	.st7{fill:#889FD1;}
</style>
<g id="XMLID_214_">
	<path id="XMLID_95_" class="st0" d="M-370.7,251.2c-0.2-7.2,2.1-13.6,6.5-19.3c3.3-4.3,7.5-7.5,12.3-10c0.5-0.2,0.9-0.5,1.5-0.5
		c-0.3,0.7-1,0.9-1.6,1.2c-7.2,4-12.4,9.9-15.8,17.5c-0.8,1.9-1.7,3.8-1.9,6c0.3,0,0.5,0.1,0.7,0.1c4.4,0,8.7,0,13.1,0
		c0.5,0,1-0.1,1.5-0.3c2.9-0.7,4.6-2.8,6.4-4.9c2.1-2.5,4.6-4.3,8-4.4c3.9-0.1,6.7-1.9,8.1-5.5c1.7-4.2,3.2-8.6,4.4-12.9
		c3.5,0.3,6.7,1.3,9.8,2.6c8.1,3.4,14.5,8.8,18.3,16.8c1.3,2.7,2.5,5.5,2.4,8.6c-0.4-0.5-0.5-1.1-0.7-1.7c-0.4-1.2-0.6-2.5-1.5-3.6
		c-5.5,2.5-10.3,6-14.2,10.6c-1.9,2.3-4.3,3.7-7.4,3.6c-1.1-0.1-2.1,0.1-3.1,0.3c-4.3,0.9-7.3,4.6-7,9c0.4,4.9,3.5,8,8.3,8.3
		c4.8,0.3,9.6,0,14.4,0c0.3,0,0.6,0.1,1,0.1c-0.2,0.2-0.3,0.4-0.5,0.6c-6.8,5.7-14.7,8.6-23.5,9.2c-0.1,0-0.2,0-0.4-0.1
		c-0.9-0.9-2-1.2-3.1-1.2c-2.9-0.1-5.3-1-7.1-3.4c-0.7-0.9-1.4-1.7-2.1-2.6c-1.1-1.3-2.5-2.2-4.2-2.5c-3.4-0.6-6.9-0.2-10.4-0.2
		c-0.1,0-0.2,0.1-0.3,0.2l-1.7-0.3c-0.3-0.8-1-1.2-1.5-1.8c-4.2-4.4-6.9-9.6-8.1-15.6C-370.4,253.8-370.1,252.4-370.7,251.2"/>
	<path id="XMLID_94_" class="st1" d="M-286.2,305c1.1-1.1,2.7-1.4,3.9-2.4c1.8-1.4,3-3.1,3.7-5.1c1.3-3.5,2.5-7.1,3.9-10.6
		c0.6-1.7,1.6-2.9,3.4-3.8c3.6-1.7,8.4,0.6,8.5,5.6c0,1.8-0.7,3.7-1.2,5.5c-1.3,5.6-2.7,11.2-4.1,16.8c-1.3,5.2-4.5,9-9.2,11.4
		c-4.2,2.1-8.5,4-12.8,6.1c-5.2,2.5-8.2,6.8-9,12.5c-0.3,2.4-0.1,4.8-0.1,7.3c0,0.4,0,0.8,0,1.3c0,2.4-1,3.6-3.2,3.6
		c-3.7,0-7.5,0.2-11.2-0.2c-2.3-0.3-4.6-0.1-7-0.1c-1.9,0-3.8,0-5.7,0c-1.6,0-2.6-0.9-2.7-2.5c-0.1-3.4-0.4-6.7-0.3-10.1
		c0-1.3,0.3-2.6,0.4-3.9c0.1-1.9-0.4-3.8-0.4-5.7c0-3.4,0.4-6.7,1.4-9.9c1.5-4.8,4.5-8.5,8.9-10.9c2.1-1.2,4.4-1.8,6.8-2.3
		c3.7-0.8,7-2.5,10-4.8c0.9-0.7,1.7-1.4,2.7-2c2.9-1.9,7-0.7,7.9,3.2c0.2,1.1,0.1,2.3,0.7,3.3c-0.2,0.3-0.5,0.4-0.7,0.8
		c-1.2,3-3.5,4.9-6,6.6c-1.7,1.1-3.6,1.7-5.4,2.5c-1.2,0.6-1.4,1.2-1.1,2.3c0.4,1,1.2,1.4,2.4,1c3.2-0.9,6.1-2.6,8.7-4.6
		C-289.5,313.1-286.8,309.7-286.2,305"/>
	<path id="XMLID_93_" class="st1" d="M-378.9,307.2c0.7-0.9,0.5-2,0.6-3c0.6-4.3,5.4-5.5,8.3-3.2c2.8,2.2,5.7,4.3,9.1,5.6
		c1.5,0.6,3.1,0.9,4.7,1.3c5.7,1.2,9.9,4.4,12.7,9.4c1.7,3,2.3,6.2,2.6,9.6c0.2,1.9,0.4,3.9,0.2,5.8c-0.2,1.6-0.4,3.2-0.2,4.7
		c0.3,2.1,0.1,4.1,0.2,6.1c0.1,2.3-0.4,4.6-0.3,6.9c0,1.5-1.1,2.3-2.6,2.4c-3.3,0-6.5-0.1-9.8,0c-4.4,0.2-8.8,0.2-13.2,0.3
		c-0.6,0-1.1,0-1.7-0.2c-1.8-0.6-2.3-1.2-2.3-3.1c0-2.4,0.1-4.7,0-7.1c-0.2-6.3-3-11.1-8.6-14c-4.1-2.1-8.2-4-12.4-5.9
		c-5.4-2.6-8.9-6.8-10.3-12.7c-1.4-6-2.9-11.9-4.3-17.8c-0.4-1.6-1-3.2-0.5-5.1c1.2-4.2,6-6.2,9.9-3.1c1.4,1.1,1.8,2.9,2.4,4.5
		c1.1,3,2.1,6,3.2,9c1,2.7,2.8,4.8,5.4,6.1c0.7,0.4,1.6,0.6,2.2,1.3c0.4,2,0.8,3.9,2,5.6c3.3,5,8.1,8.1,13.7,10c1,0.3,1.7,0,2.2-0.9
		c0.5-1,0.3-1.7-0.7-2.3c-0.4-0.3-0.9-0.5-1.4-0.6c-4.5-1.8-8.5-4.2-10.4-8.9C-378.5,307.5-378.8,307.4-378.9,307.2"/>
	<path id="XMLID_92_" class="st2" d="M-327.4,218.2c-1.2,4.4-2.7,8.7-4.4,12.9c-1.4,3.6-4.2,5.4-8.1,5.5c-3.4,0.1-5.9,1.9-8,4.4
		c-1.8,2.1-3.5,4.2-6.4,4.9c-0.5,0.1-1,0.3-1.5,0.3c-4.4,0-8.7,0-13.1,0c-0.2,0-0.4,0-0.7-0.1c0.2-2.2,1-4.1,1.9-6
		c3.2-7.6,8.4-13.5,15.7-17.5c0.6-0.3,1.3-0.5,1.6-1.2l0,0c0.3,0,0.6,0,0.7-0.3l0,0c0.5,0,1.1,0.2,1.2-0.5c5.6-2.3,11.5-3.3,17.6-3
		C-329.7,217.7-328.5,217.7-327.4,218.2"/>
	<path id="XMLID_91_" class="st2" d="M-308,272.6c-4.8,0-9.6,0.3-14.4,0c-4.9-0.3-8-3.4-8.3-8.3c-0.3-4.4,2.7-8.1,7-9
		c1-0.2,2.1-0.3,3.1-0.3c3.1,0.2,5.5-1.3,7.4-3.6c3.9-4.7,8.6-8.1,14.2-10.6c0.8,1.1,1.1,2.4,1.5,3.6c0.2,0.6,0.2,1.2,0.7,1.7
		c0.4,1.3,0.3,2.8,0.6,4.1c-0.1,0.1-0.2,0.3-0.2,0.4c-0.6,4.7-2.2,9.1-4.6,13.2C-303.1,267.1-305.5,269.9-308,272.6"/>
	<path id="XMLID_90_" class="st3" d="M-289.6,226.8v-8.5h8.7c0.3-3,0-5.9,0.2-8.8h8.4v8.7h8.8v8.5h-8.7v8.8h-8.5v-8.7H-289.6z"/>
	<polygon id="XMLID_89_" class="st3" points="-406.9,255 -398.3,255 -398.3,246.2 -389.8,246.2 -389.8,254.9 -381,254.9 -381,263.4 
		-389.6,263.4 -389.6,272.2 -398.2,272.2 -398.2,263.5 -406.9,263.5 	"/>
	<path id="XMLID_88_" class="st4" d="M-360.5,272.5l1.8,0.1c1,1.5,2.5,2.4,3.9,3.3c7.1,4.7,14.8,7,23.4,6.5c0.1,0,0.2,0,0.4,0.1
		c1.5,1.2,2.5,2.8,3,4.6c0.5,1.6,0.9,3.2,1.4,4.8c-3.5,0.8-7,0.9-10.5,0.5c-4.3-0.4-8.3-1.5-12.2-3.3c-7.5-3.5-13.2-8.9-17.1-16.1
		c0-0.1,0-0.2,0-0.3C-364.5,272.6-362.5,272.6-360.5,272.5"/>
	<path id="XMLID_87_" class="st5" d="M-326.7,291.9c-0.5-1.6-0.9-3.2-1.4-4.8c-0.5-1.8-1.5-3.4-3-4.6c8.8-0.7,16.7-3.6,23.5-9.2
		c0.2-0.2,0.3-0.4,0.5-0.6c2.1,0.1,4.3-0.3,6.4,0.2c-4.7,8.7-11.8,14.6-21.2,17.8C-323.4,291.2-325,291.7-326.7,291.9"/>
	<path id="XMLID_86_" class="st6" d="M-378.9,307.2c0.2,0.2,0.5,0.3,0.6,0.5c1.9,4.8,5.9,7.2,10.4,8.9c0.5,0.2,1,0.4,1.4,0.6
		c1,0.6,1.2,1.3,0.7,2.3c-0.4,0.9-1.1,1.3-2.2,0.9c-5.6-1.9-10.4-4.9-13.7-10c-1.1-1.7-1.6-3.6-2-5.6
		C-382,305.4-380.5,306.5-378.9,307.2"/>
	<path id="XMLID_85_" class="st6" d="M-286.2,305c-0.5,4.7-3.3,8.1-6.8,10.9c-2.6,2.1-5.5,3.7-8.7,4.6c-1.2,0.3-2,0-2.4-1
		s-0.1-1.7,1.1-2.3c1.8-0.9,3.7-1.4,5.4-2.5c2.6-1.7,4.9-3.6,6-6.6c0.2-0.4,0.5-0.5,0.7-0.8C-289.4,306.5-287.9,305.5-286.2,305"/>
	<path id="XMLID_84_" class="st4" d="M-300.7,272.8c-2.1-0.5-4.3-0.1-6.4-0.2c-0.3,0-0.6-0.1-1-0.1c2.6-2.7,5-5.5,6.8-8.7
		c2.4-4.1,4-8.5,4.6-13.2c0-0.1,0.1-0.3,0.2-0.4c0.9,6.3,0.1,12.3-2.1,18.2C-299.1,270-299.7,271.5-300.7,272.8"/>
	<path id="XMLID_83_" class="st5" d="M-360.5,272.5c-2,0-4,0.1-6,0.1c-2.2-3.9-3.4-8.1-4.1-12.4c-0.4-2.3-0.3-4.6-0.3-6.9
		c0-0.7-0.1-1.5,0.3-2.2c0.6,1.3,0.3,2.6,0.5,4c1.2,6,3.9,11.2,8.1,15.6C-361.5,271.3-360.8,271.8-360.5,272.5"/>
	<path id="XMLID_82_" class="st7" d="M-348.6,220.6c-0.2,0.7-0.8,0.5-1.2,0.5C-349.5,220.7-349.1,220.6-348.6,220.6"/>
	<path id="XMLID_81_" class="st7" d="M-349.8,221.1c-0.1,0.4-0.4,0.4-0.7,0.3C-350.3,221.1-350.1,221.1-349.8,221.1"/>
	<path id="XMLID_80_" class="st2" d="M-331.4,282.4c-8.5,0.6-16.3-1.7-23.4-6.5c-1.4-0.9-2.9-1.9-3.9-3.3c0.1-0.1,0.2-0.2,0.3-0.2
		c3.5,0,6.9-0.4,10.4,0.2c1.7,0.3,3.1,1.2,4.2,2.5c0.7,0.8,1.4,1.7,2.1,2.6c1.8,2.4,4.3,3.3,7.1,3.4
		C-333.4,281.2-332.3,281.5-331.4,282.4"/>
</g>
</svg>
