<?xml version="1.0" encoding="utf-8"?>
<!-- Generator: Adobe Illustrator 19.0.0, SVG Export Plug-In . SVG Version: 6.00 Build 0)  -->
<svg version="1.1" id="Capa_1" xmlns="http://www.w3.org/2000/svg" xmlns:xlink="http://www.w3.org/1999/xlink" x="0px" y="0px"
	 viewBox="-405 204.5 148.5 152.5" style="enable-background:new -405 204.5 148.5 152.5;" xml:space="preserve">
<style type="text/css">
	.st0{fill:#7027CC;}
	.st1{fill:#ECC4CD;}
	.st2{fill:#7E7EB5;}
	.st3{fill:#434567;}
	.st4{fill:#FAFAFA;}
	.st5{fill:#E2EFF9;}
	.st6{fill:#D48D9D;}
	.st7{fill:#D8E5F9;}
	.st8{fill:#9BB937;}
	.st9{enable-background:new    ;}
</style>
<g id="XMLID_217_">
	<path id="XMLID_79_" class="st0" d="M-386.5,269c-6.5-2.8-11.4-7.1-14.7-13.2c-5.3-9.8-3.8-23.1,3.7-31.4c6.3-7,14.2-10.4,23.7-9.6
		c12.6,1,22.7,10.3,25.1,22.3c0.6,2.9,0.9,5.8,0.4,8.8c-0.2,0.9,0.2,1.5,0.8,2.1c1.7,1.8,3.3,3.7,5,5.7c-1.5,0.4-2.8,0.3-4,0.2
		c-2.7-0.4-4.2,0.5-5.6,3.1c-2.8,5.3-7.4,8.9-12.8,11.4c-0.4,0.2-0.9,0.2-1.2,0.6c0,0.4,0.3,0.4,0.6,0.5c6.1,2.5,10.6,6.8,13.8,12.5
		c0.6,1.1,1.1,1.1,2.1,0.6c2.2-1.1,4.4-2.2,6.6-3.3c0.4,0.4,0.1,0.6,0,0.9c-0.9,2-1.7,4-2.6,5.9c-1.6,3.4-2.6,6.8-2.7,10.8
		c-0.5,13.5-10.1,24.2-23.1,26.6c-16.2,2.9-31.2-8-33.3-24.3c-1.6-12.2,4.5-23,14.7-28.5C-388.9,270.1-387.8,269.6-386.5,269"/>
	<path id="XMLID_78_" class="st1" d="M-263.1,285.6c4.1,0,6.6,2.4,6.6,6.5c0,21,0,42.1,0,63.1c0,1.9,0,1.9-1.9,1.9
		c-13.8,0-27.5,0-41.3,0c-1.4,0-1.9-0.3-1.8-1.7c0.1-1.5,0-3,0.1-4.4c0.1-1.2-0.3-2.1-1.1-3c-3.6-3.9-7.3-7.9-10.9-11.9
		c-1.2-1.3-2.2-2.7-3.6-3.8c0-0.5-0.4-0.7-0.7-1c-2.5-2.7-4.9-5.5-7.5-8.2c-2.2-2.3-3.8-4.7-3.2-8.1c0.6-1.2,1.4-2.2,2.3-3.1
		c3-1.7,5.8-1.1,8.6,0.7c2.4,1.5,5,2.7,7.5,4c1.4,0.8,2.7,1.7,4.1,2.5c0.7,3.5,2,6.7,3,10.1c0.1,0.3,0.3,0.7,0.8,0.7
		c0.5-0.1,0.9-0.5,0.9-0.9c0-2.5,0.4-5-0.2-7.5c0-16,0-32.1,0-48.1c0-2.4,0.4-4.6,2.2-6.3c4.7-2.9,9.1,0.9,8.9,5.4
		c-0.2,5.7,0,11.3,0,17c-1.1,0.2-1.9,0.7-1.9,2.1c0,5.3,0,10.5,0,15.8c0,0.7,0.2,1.2,0.7,1.6c0.6,0.4,1.2,0.6,1.9,0.2
		c0.9-0.5,1.1-1.3,1.1-2.2c0-4.8,0-9.7,0-14.5c0-1.3-0.3-2.3-1.3-3c-0.1-0.6,0.2-1.1,0.6-1.6c1.3-1.4,2.8-2.3,4.7-2.1
		c2.2,0.3,4.1,1.3,4.8,3.7c-1.2,0.7-1.6,1.8-1.6,3.2c0.1,2.5,0,4.9,0,7.4c0,2.3,0,4.6,0,6.9c0,1.4,1,2.4,2,2.4s1.9-1,2-2.4
		c0-0.2,0-0.4,0-0.6c0-4.6,0-9.2,0-13.9c0-1.3-0.4-2.3-1.6-3c0.9-2.7,3.1-3.6,5.7-3.8c2.2,0.5,3.9,1.5,4.7,3.8
		c-1.1,0.4-1.6,1.2-1.6,2.4c0,5,0,10,0,15c0,1.3,1,2.5,2,2.4c1.1,0,1.8-0.9,1.8-2.4c0-4.9,0-9.8,0-14.7c0-1.2-0.3-2.1-1.3-2.8
		C-266.7,287.1-264.8,286.4-263.1,285.6"/>
	<path id="XMLID_77_" class="st2" d="M-263.1,285.6c-1.8,0.8-3.6,1.6-4.1,3.7c-0.3,0-0.6,0-0.9,0c-0.8-2.2-2.6-3.3-4.7-3.8
		c0-22.3,0-44.7,0-67c0-3.4-0.5-3.8-3.9-3.8c-2.9,0-5.8,0-8.7,0c-0.2,0-0.4,0-0.7,0c-9.1,0-18.1,0-27.2,0c-3,0-6,0-9,0
		s-3.6,0.6-3.6,3.6c0,30.6,0,61.2,0,91.8c0,0.6,0,1.2,0,1.7c-0.9,0.9-1.7,2-2.3,3.1c-3.4,2.7-4,5.4-2.1,9.2c1.3,2.6,2.7,5.2,4,7.8
		c-1.3,0-2.6,0-4,0c-3.1,0-5.2-2.1-5.2-5.3c0-38.9,0-77.9,0-116.8c0-3.2,2.2-5.4,5.5-5.4c7.9,0,15.8,0,23.7,0
		c12.4,0,24.8,0.1,37.2-0.1c3.4,0,6.1,2.8,6.1,6.1C-263.1,235.6-263.1,260.6-263.1,285.6"/>
	<path id="XMLID_76_" class="st3" d="M-326.3,332c-1.3-2.6-2.7-5.2-4-7.8c-1.9-3.9-1.2-6.6,2.1-9.2c-0.7,3.4,1,5.8,3.2,8.1
		c2.6,2.7,5,5.5,7.5,8.2c0.3,0.3,0.6,0.6,0.7,1c-2.7,0-5.4,0-8.1,0C-325.5,332.3-325.9,332.4-326.3,332"/>
	<path id="XMLID_71_" class="st4" d="M-285.5,214.7c2.9,0,5.8,0,8.7,0c3.5,0,3.9,0.4,3.9,3.8c0,22.3,0,44.7,0,67
		c-2.6,0.2-4.8,1.1-5.7,3.8c-0.3,0-0.6,0-0.9,0c-0.7-2.4-2.6-3.4-4.8-3.7c-1.9-0.2-3.5,0.7-4.7,2.1c-0.4,0.4-0.7,1-0.6,1.6
		c-0.2,0-0.4,0-0.6,0.1c0-5.7-0.2-11.3,0-17c0.2-4.5-4.2-8.3-8.9-5.4c-0.5-0.6-1.2-0.7-1.8-0.9c-2.6-0.6-5.4,0.9-5.8,3.1
		c-0.2,1.5-0.3,3-0.3,4.5c0,13.3,0,26.6,0,40c0,1,0.4,2.2-0.2,2.9c-0.6,0.6-1.7-0.2-2.7,0c-2.5-1.3-5.1-2.5-7.5-4
		c-2.8-1.8-5.6-2.4-8.6-0.7c0-0.6,0-1.2,0-1.7c0-30.6,0-61.2,0-91.8c0-3,0.6-3.6,3.6-3.6s6,0,9,0c0.1,0.1,0.2,0.2,0.3,0.3
		c0.6,1.4,1.5,2.6,2.2,4c0.9,1.7,2.4,2.4,4.3,2.4c4.8,0,9.6,0,14.3,0c1.9,0,3.3-0.8,4.2-2.3C-287,217.7-286.3,216.2-285.5,214.7
		 M-311.2,257.9c-1,0.1-1.7,0.4-2,1.3c-0.3,0.8-0.2,1.7,0.5,2.1c1.4,0.9,2.9,1.6,4.5,2.3c0.8,0.4,1.6-0.1,2-0.8
		c0.5-0.7,0.6-1.6-0.1-2.2C-307.7,259.3-309.6,258.7-311.2,257.9 M-296.6,252.3c-0.3-1.3-0.6-3-1.3-4.5c-0.4-1-1.4-1.1-2.3-0.8
		s-1.4,1.1-1.2,2c0.3,1.5,0.7,3.1,1.3,4.5c0.3,0.9,1.1,1.4,2.2,1.1C-297,254.4-296.5,253.7-296.6,252.3 M-288.4,254.1
		c0,1,0.3,1.6,1.1,2c0.7,0.3,1.5,0.3,2-0.3c1-1,2-2,3-3.1c0.8-0.9,0.8-1.8,0-2.7c-0.8-0.8-1.9-0.7-2.8,0.1c-0.9,0.9-1.8,1.9-2.7,2.9
		C-288.2,253.3-288.4,253.8-288.4,254.1"/>
	<path id="XMLID_70_" class="st5" d="M-309.9,316.5c0.9-0.2,2.1,0.6,2.7,0c0.6-0.7,0.2-1.9,0.2-2.9c0-13.3,0-26.7,0-40
		c0-1.5,0.1-3,0.3-4.5c0.3-2.2,3.2-3.7,5.8-3.1c0.6,0.2,1.4,0.3,1.8,0.9c-1.8,1.7-2.2,3.9-2.2,6.3c0,16,0,32.1,0,48.1
		c-1.5-0.8-3-1.5-4.5-2.3C-307.2,318.2-308.5,317.4-309.9,316.5"/>
	<path id="XMLID_69_" class="st6" d="M-279.5,289.3c0.3,0,0.6,0,0.9,0c1.2,0.7,1.6,1.7,1.6,3c0,4.6,0,9.2,0,13.9c0,0.2,0,0.4,0,0.6
		c-0.1,1.4-1,2.4-2,2.4s-2-1-2-2.4c0-2.3,0-4.6,0-6.9c0-2.5,0-4.9,0-7.4C-281.1,291.1-280.7,290-279.5,289.3"/>
	<path id="XMLID_68_" class="st6" d="M-290.3,289.3c0.2,0,0.4,0,0.6-0.1c1,0.8,1.3,1.8,1.3,3c-0.1,4.8,0,9.7,0,14.5
		c0,0.9-0.2,1.8-1.1,2.2c-0.7,0.4-1.3,0.2-1.9-0.2c-0.6-0.4-0.7-1-0.7-1.6c0-5.3,0-10.5,0-15.8C-292.2,290-291.4,289.6-290.3,289.3"
		/>
	<path id="XMLID_67_" class="st6" d="M-268.1,289.3c0.3,0,0.6,0,0.9,0c1,0.6,1.4,1.5,1.3,2.8c-0.1,4.9,0,9.8,0,14.7
		c0,1.5-0.7,2.4-1.8,2.4c-1,0-2-1.1-2-2.4c0-5,0-10,0-15C-269.7,290.6-269.2,289.8-268.1,289.3"/>
	<path id="XMLID_66_" class="st6" d="M-305.8,319c1.5,0.8,3,1.5,4.5,2.3c0.6,2.5,0.2,5,0.2,7.5c0,0.5-0.4,0.9-0.9,0.9
		c-0.5,0.1-0.6-0.3-0.8-0.7C-303.8,325.7-305.2,322.5-305.8,319"/>
	<path id="XMLID_65_" class="st7" d="M-286.2,214.7c-0.5,0.5-1.2,0.3-1.8,0.3c-8.4,0-16.7,0-25.1,0c-0.1-0.1-0.2-0.2-0.3-0.3
		C-304.3,214.7-295.2,214.7-286.2,214.7"/>
	<path id="XMLID_64_" class="st8" d="M-311.2,257.9c1.6,0.8,3.5,1.4,4.9,2.7c0.7,0.6,0.6,1.4,0.1,2.2c-0.5,0.7-1.2,1.1-2,0.8
		c-1.5-0.7-3-1.5-4.5-2.3c-0.8-0.5-0.8-1.3-0.5-2.1C-312.9,258.3-312.2,258-311.2,257.9"/>
	<path id="XMLID_63_" class="st8" d="M-296.6,252.3c0.1,1.4-0.4,2.1-1.4,2.3c-1,0.3-1.8-0.2-2.2-1.1c-0.5-1.5-1-3-1.3-4.5
		c-0.2-0.9,0.3-1.7,1.2-2s1.9-0.1,2.3,0.8C-297.2,249.4-296.8,251-296.6,252.3"/>
	<path id="XMLID_62_" class="st8" d="M-288.4,254.1c0-0.3,0.2-0.7,0.5-1.1c0.9-1,1.8-2,2.7-2.9c0.9-0.9,2.1-0.9,2.8-0.1
		c0.9,0.9,0.8,1.8,0,2.7c-0.9,1.1-2,2.1-3,3.1c-0.6,0.6-1.3,0.7-2,0.3C-288.1,255.7-288.4,255.1-288.4,254.1"/>
	<path id="XMLID_61_" class="st2" d="M-283.9,214.3c-0.9,1.6-1.7,3.4-2.7,4.9c-1.1,1.6-2.6,2.6-4.7,2.6c-5.4-0.1-10.7,0-16.1,0
		c-2.1,0-3.8-0.8-4.8-2.7c-0.8-1.5-1.9-2.8-2.5-4.4c9.4,0,18.7,0,28.1,0c0.7,0,1.4,0.3,2-0.3L-283.9,214.3z"/>
	<g class="st9">
		<path class="st4" d="M-379.7,305.3c-0.9,0-1.8-0.2-2.6-0.5c-0.8-0.3-1.5-0.7-2.1-1.3s-1-1.2-1.4-1.9s-0.5-1.5-0.5-2.4
			c0-0.9,0.2-1.7,0.6-2.5c0.4-0.8,1-1.4,1.7-2c0.7-0.5,1.6-1,2.6-1.3c1-0.3,2.1-0.5,3.3-0.5c0.9,0,1.7,0.1,2.5,0.2
			c0.8,0.1,1.5,0.4,2.2,0.6v-1.1c0-1.3-0.4-2.2-1.1-2.9c-0.7-0.7-1.8-1-3.2-1c-1,0-2,0.2-3,0.5c-1,0.4-2,0.9-3,1.6l-1.5-3.1
			c2.5-1.6,5.1-2.4,8-2.4c2.8,0,4.9,0.7,6.4,2c1.5,1.4,2.3,3.3,2.3,5.9v6c0,0.5,0.1,0.9,0.3,1.1s0.5,0.3,0.9,0.4v4.2
			c-0.8,0.2-1.5,0.3-2.2,0.3c-0.9,0-1.6-0.2-2.1-0.6c-0.5-0.4-0.8-1-0.9-1.6l-0.1-1.1c-0.9,1.1-1.9,2-3.1,2.6
			C-377,305-378.3,305.3-379.7,305.3z M-378.3,301.7c0.8,0,1.6-0.1,2.4-0.4c0.7-0.3,1.3-0.7,1.7-1.2c0.5-0.4,0.8-0.9,0.8-1.4v-2.2
			c-0.6-0.2-1.2-0.4-1.9-0.5c-0.7-0.1-1.3-0.2-2-0.2c-1.3,0-2.3,0.3-3.1,0.9s-1.2,1.3-1.2,2.2c0,0.8,0.3,1.5,0.9,2.1
			C-380,301.4-379.3,301.7-378.3,301.7z"/>
	</g>
	<g class="st9">
		<path class="st4" d="M-389.3,236.1c1.7,0.7,3.8,1.9,4.8,2.8l-1.1,1.5c-1-0.9-3.1-2.2-4.8-3L-389.3,236.1z M-389.5,252.4
			c1.3-2.2,3.2-5.9,4.6-9l1.4,1.1c-1.2,2.9-2.9,6.4-4.1,8.5c0.1,0.1,0.1,0.3,0.1,0.4s0,0.2-0.1,0.3L-389.5,252.4z M-387.8,228.6
			c1.7,0.8,3.8,2.1,4.8,3.1l-1.1,1.5c-1-1-3-2.3-4.7-3.2L-387.8,228.6z M-364.8,248.3h-7.4c1.5,2.1,4.3,3.6,7.7,4.1
			c-0.4,0.4-0.9,1-1.1,1.5c-3.9-0.9-6.8-2.8-8.4-5.6h-0.3c-1.2,2.2-3.6,4.2-8.2,5.6c-0.2-0.4-0.7-1-1.1-1.4c3.9-1.1,6.1-2.6,7.3-4.2
			h-6.8v-1.5h7.7c0.2-0.7,0.4-1.3,0.5-2h-6.9v-1.5h6.9v-2h-6.1v-5.9h14.3v5.9h-6.4v2h7.2v1.5h-7.3c-0.1,0.7-0.2,1.4-0.4,2h8.9V248.3
			z M-378.3,234.7v-2.1h-4.7V231h4.7v-2.7l2.3,0.1c0,0.2-0.2,0.3-0.5,0.4v2.1h4.8v-2.7l2.3,0.1c0,0.2-0.2,0.3-0.5,0.4v2.1h5.1v1.6
			h-5.1v2.1h-1.8v-2.1h-4.8v2.1H-378.3z M-379.5,239.8h4.4v-3.1h-4.4V239.8z M-368.6,239.8v-3.1h-4.6v3.1H-368.6z"/>
	</g>
</g>
</svg>
