<?xml version="1.0" encoding="utf-8"?>
<!-- Generator: Adobe Illustrator 19.0.0, SVG Export Plug-In . SVG Version: 6.00 Build 0)  -->
<svg version="1.1" id="Capa_1" xmlns="http://www.w3.org/2000/svg" xmlns:xlink="http://www.w3.org/1999/xlink" x="0px" y="0px"
	 viewBox="0 0 1178.3 249.7" style="enable-background:new 0 0 1178.3 249.7;" xml:space="preserve">
<style type="text/css">
	.st0{fill-rule:evenodd;clip-rule:evenodd;fill:#FFFFFF;}
</style>
<g>
	<path class="st0" d="M420.1,38.6h-22.6c-1,0-1.9-0.8-1.9-1.9V1.6c0-0.9-0.7-1.6-1.6-1.6h-28.4c-0.9,0-1.6,0.7-1.6,1.6v171.6
		c0,13.7,11.2,24.9,24.9,24.9H420c0.9,0,1.6-0.7,1.6-1.6V168c0-0.9-0.7-1.6-1.6-1.6h-22.6c-1,0-1.9-0.8-1.9-1.9l0-92.3
		c0-1,0.8-1.9,1.9-1.9h22.6c0.9,0,1.6-0.7,1.6-1.6V40.3C421.7,39.4,421,38.6,420.1,38.6"/>
	<path class="st0" d="M646.4,0H618c-0.9,0-1.6,0.7-1.6,1.6v194.9c0,0.9,0.7,1.6,1.6,1.6h28.4c0.9,0,1.6-0.7,1.6-1.6V1.6
		C648,0.7,647.3,0,646.4,0"/>
	<path class="st0" d="M149.7,11.6c-11.9,0-21.5,9.6-21.5,21.5c0,11.9,9.6,21.5,21.5,21.5c11.9,0,21.5-9.6,21.5-21.5
		C171.2,21.2,161.6,11.6,149.7,11.6"/>
	<path class="st0" d="M1178.1,39.3c-0.3-0.5-0.8-0.7-1.3-0.7h-33.9c-0.7,0-1.2,0.3-1.5,0.9l-45,104.9c-1,2.3-2.1,1.2-2.4,0.5
		l-45.1-105.4c-0.3-0.6-0.8-1-1.5-1h-32.5c-0.6,0-1,0.2-1.3,0.7c-0.3,0.5-0.4,1-0.1,1.5l65.4,144c0.2,0.5-0.2,1.1-0.4,1.6
		l-24.5,57.2c-0.2,0.5-0.2,1,0.1,1.5c0.3,0.5,0.8,0.7,1.3,0.7h28.5c0.7,0,1.2-0.3,1.5-0.9l92.9-204.1
		C1178.4,40.3,1178.4,39.8,1178.1,39.3"/>
	<path class="st0" d="M262,38.6c-40.2,0-74.2,30-79.1,69.9c-0.4,3.3-0.6,6.6-0.6,9.9s0.2,6.6,0.6,9.9c4.9,39.9,39,69.9,79.1,69.9
		c21.2,0,41.4-8.4,56.4-23.4l3.7-3.7c0.6-0.6,0.6-1.6,0-2.3l-20.1-20.1c-0.6-0.6-1.6-0.6-2.3,0l-3.7,3.7
		c-5.2,5.2-11.5,9.1-18.4,11.5c-0.1,0.1-0.3,0.1-0.4,0.1c-4.8,1.6-9.9,2.5-15.2,2.5c-11.1,0-21.6-3.8-30-10.5
		c-6.3-5-11.3-11.5-14.5-19.2c0-0.1-0.1-0.1-0.1-0.2c-2.3-5.6-3.6-11.8-3.6-18.2c0-6.4,1.3-12.6,3.6-18.2c0-0.1,0-0.1,0.1-0.2
		c3.2-7.6,8.2-14.2,14.4-19.1c0,0,0,0,0,0c8.2-6.6,18.7-10.6,30.1-10.6c11.2,0,21.7,3.9,30.1,10.6c6.2,5,11.2,11.5,14.4,19.1
		c0,0.1,0,0.1,0.1,0.2c0.3,0.8,0.6,1.6,0.9,2.4H269h-33.6h0h-1.1c0,0-4.2,7-4.2,15.8c0,10,4.2,15.8,4.2,15.8h1.1h0h16.3h55.7h5.1
		h26.4c0.8,0,1.5-0.6,1.6-1.4l0.6-4.5c0.4-3.3,0.6-6.6,0.6-9.9s-0.2-6.6-0.6-9.9C336.2,68.6,302.1,38.6,262,38.6"/>
	<path class="st0" d="M142.4,199.3C142.4,199.3,142.4,199.3,142.4,199.3l-14.2-17.2c19.5-14.6,31.9-37.9,31.9-63.8
		c0-40.2-30-74.2-69.9-79.1c-3.3-0.4-6.6-0.6-9.9-0.6c-3.3,0-6.6,0.2-9.9,0.6c-39.9,4.9-69.9,39-69.9,79.1s30,74.2,69.9,79.1
		c3.3,0.4,6.6,0.6,9.9,0.6c3.3,0,6.6-0.2,9.9-0.6c4.9-0.6,9.7-1.7,14.2-3.1l12.7,19.1c-7.6,3-15.7,5-24.2,6.1
		c-4.2,0.5-8.4,0.8-12.6,0.8c-4.2,0-8.4-0.3-12.6-0.8c-18.1-2.2-34.6-9.2-48.3-19.4c-0.6-0.5-1.5-0.4-2.1,0.2L0.4,220.6
		c-0.5,0.7-0.4,1.6,0.2,2.2c18,13.7,39.6,23,63.4,25.9c5.4,0.7,10.8,1,16.3,1c5.4,0,10.9-0.3,16.3-1c23.8-2.9,45.4-12.1,63.3-25.8
		c0.7-0.5,0.8-1.5,0.2-2.1L142.4,199.3z M88.2,165.8c-2.6,0.4-5.3,0.7-7.9,0.7s-5.3-0.2-7.9-0.7l-0.7-0.1
		c-22.9-4.1-39.5-24.1-39.5-47.3c0-23.5,17-43.6,40.2-47.4c2.6-0.4,5.3-0.7,7.9-0.7s5.3,0.2,7.9,0.7l0.6,0.1
		c22.9,4.1,39.5,24.1,39.5,47.3C128.4,141.8,111.4,161.9,88.2,165.8"/>
	<path class="st0" d="M759.9,39.2c-3.3-0.4-6.6-0.6-9.9-0.6c-3.3,0-6.6,0.2-9.9,0.6c-39.9,4.9-69.9,39-69.9,79.1s30,74.2,69.9,79.1
		c3.3,0.4,6.6,0.6,9.9,0.6c3.3,0,6.6-0.2,9.9-0.6c39.9-4.9,69.9-39,69.9-79.1C829.7,78.2,799.8,44.2,759.9,39.2 M757.9,165.8
		c-2.6,0.4-5.3,0.7-7.9,0.7c-2.7,0-5.3-0.2-7.9-0.7l-0.7-0.1c-22.9-4.1-39.5-24.1-39.5-47.3c0-23.5,17-43.6,40.2-47.4
		c2.6-0.4,5.3-0.7,7.9-0.7c2.7,0,5.3,0.2,7.9,0.7l0.6,0.1c22.9,4.1,39.5,24.1,39.5,47.3C798.1,141.8,781.1,161.9,757.9,165.8"/>
	<path class="st0" d="M580.2,11.6c-11.9,0-21.5,9.6-21.5,21.5c0,11.9,9.6,21.5,21.5,21.5c11.9,0,21.5-9.6,21.5-21.5
		C601.7,21.2,592.1,11.6,580.2,11.6"/>
	<path class="st0" d="M572.9,199.3C572.9,199.3,572.9,199.3,572.9,199.3l-14.3-17.2c19.5-14.6,31.9-37.9,31.9-63.8
		c0-40.2-30-74.2-69.9-79.1c-3.3-0.4-6.6-0.6-9.9-0.6s-6.6,0.2-9.9,0.6c-39.9,4.9-69.9,39-69.9,79.1s30,74.2,69.9,79.1
		c3.3,0.4,6.6,0.6,9.9,0.6s6.6-0.2,9.9-0.6c4.9-0.6,9.7-1.7,14.2-3.1l12.7,19.1c-7.6,3-15.7,5-24.2,6.1c-4.2,0.5-8.4,0.8-12.6,0.8
		c-4.2,0-8.4-0.3-12.6-0.8c-18.1-2.2-34.6-9.2-48.3-19.4c-0.6-0.5-1.5-0.4-2.1,0.2l-16.9,20.3c-0.5,0.7-0.4,1.6,0.2,2.2
		c18,13.7,39.6,23,63.4,25.9c5.4,0.7,10.8,1,16.3,1c5.4,0,10.9-0.3,16.3-1c23.8-2.9,45.4-12.1,63.4-25.8c0.7-0.5,0.8-1.5,0.2-2.1
		L572.9,199.3z M518.8,165.8c-2.6,0.4-5.3,0.7-7.9,0.7c-2.7,0-5.3-0.2-7.9-0.7l-0.7-0.1c-22.9-4.1-39.5-24.1-39.5-47.3
		c0-23.5,17-43.6,40.2-47.4c2.6-0.4,5.3-0.7,7.9-0.7c2.7,0,5.3,0.2,7.9,0.7l0.6,0.1c22.9,4.1,39.5,24.1,39.5,47.3
		C558.9,141.8,541.9,161.9,518.8,165.8"/>
	<path class="st0" d="M944.6,39.2c-3.3-0.4-6.6-0.6-9.9-0.6c-3.3,0-6.6,0.2-9.9,0.6c-7.2,0.9-14.1,2.8-20.6,5.4
		c-0.7,0.3-1.1,1-1.1,1.7v31.8c0,1.5,1.7,2.4,3,1.5c6-4.4,13-7.5,20.7-8.8c2.6-0.4,5.3-0.7,7.9-0.7c2.7,0,5.3,0.2,7.9,0.7l0.6,0.1
		c22.9,4.1,39.5,24.1,39.5,47.3c0,23.5-17,43.6-40.2,47.4c-2.6,0.4-5.3,0.7-7.9,0.7c-2.7,0-5.3-0.2-7.9-0.7l-0.7-0.1
		c-22.9-4.1-39.5-24.1-39.5-47.3v0v-1.6v-62V1.6c0-0.9-0.7-1.6-1.6-1.6h-28.4c-0.9,0-1.6,0.7-1.6,1.6v115.1c0,0.1,0,0.1,0,0.2
		c0,0.5,0,0.9,0,1.4c0,40.2,30,74.2,69.9,79.1c3.3,0.4,6.6,0.6,9.9,0.6c3.3,0,6.6-0.2,9.9-0.6c39.9-4.9,69.9-38.9,69.9-79.1
		S984.5,44.2,944.6,39.2"/>
</g>
</svg>
