<?xml version="1.0" encoding="utf-8"?>
<!-- Generator: Adobe Illustrator 19.0.0, SVG Export Plug-In . SVG Version: 6.00 Build 0)  -->
<svg version="1.1" id="Capa_1" xmlns="http://www.w3.org/2000/svg" xmlns:xlink="http://www.w3.org/1999/xlink" x="0px" y="0px"
	 viewBox="109 156.3 1178.3 249.7" style="enable-background:new 109 156.3 1178.3 249.7;" xml:space="preserve">
<style type="text/css">
	.st0{fill:#8222D2;}
</style>
<g>
	<path class="st0" d="M529.1,194.9h-22.6c-1,0-1.9-0.8-1.9-1.9v-35.1c0-0.9-0.7-1.6-1.6-1.6h-28.4c-0.9,0-1.6,0.7-1.6,1.6v171.6
		c0,13.7,11.2,24.9,24.9,24.9H529c0.9,0,1.6-0.7,1.6-1.6v-28.5c0-0.9-0.7-1.6-1.6-1.6h-22.6c-1,0-1.9-0.8-1.9-1.9v-92.3
		c0-1,0.8-1.9,1.9-1.9H529c0.9,0,1.6-0.7,1.6-1.6v-28.4C530.7,195.7,530,194.9,529.1,194.9"/>
	<path class="st0" d="M755.4,156.3H727c-0.9,0-1.6,0.7-1.6,1.6v194.9c0,0.9,0.7,1.6,1.6,1.6h28.4c0.9,0,1.6-0.7,1.6-1.6V157.9
		C757,157,756.3,156.3,755.4,156.3"/>
	<path class="st0" d="M258.7,167.9c-11.9,0-21.5,9.6-21.5,21.5c0,11.9,9.6,21.5,21.5,21.5c11.9,0,21.5-9.6,21.5-21.5
		C280.2,177.5,270.6,167.9,258.7,167.9"/>
	<path class="st0" d="M1287.1,195.6c-0.3-0.5-0.8-0.7-1.3-0.7h-33.9c-0.7,0-1.2,0.3-1.5,0.9l-45,104.9c-1,2.3-2.1,1.2-2.4,0.5
		l-45.1-105.4c-0.3-0.6-0.8-1-1.5-1h-32.5c-0.6,0-1,0.2-1.3,0.7c-0.3,0.5-0.4,1-0.1,1.5l65.4,144c0.2,0.5-0.2,1.1-0.4,1.6
		l-24.5,57.2c-0.2,0.5-0.2,1,0.1,1.5c0.3,0.5,0.8,0.7,1.3,0.7h28.5c0.7,0,1.2-0.3,1.5-0.9l92.9-204.1
		C1287.4,196.6,1287.4,196.1,1287.1,195.6"/>
	<path class="st0" d="M371,194.9c-40.2,0-74.2,30-79.1,69.9c-0.4,3.3-0.6,6.6-0.6,9.9c0,3.3,0.2,6.6,0.6,9.9
		c4.9,39.9,39,69.9,79.1,69.9c21.2,0,41.4-8.4,56.4-23.4l3.7-3.7c0.6-0.6,0.6-1.6,0-2.3L411,305c-0.6-0.6-1.6-0.6-2.3,0l-3.7,3.7
		c-5.2,5.2-11.5,9.1-18.4,11.5c-0.1,0.1-0.3,0.1-0.4,0.1c-4.8,1.6-9.9,2.5-15.2,2.5c-11.1,0-21.6-3.8-30-10.5
		c-6.3-5-11.3-11.5-14.5-19.2c0-0.1-0.1-0.1-0.1-0.2c-2.3-5.6-3.6-11.8-3.6-18.2c0-6.4,1.3-12.6,3.6-18.2c0-0.1,0-0.1,0.1-0.2
		c3.2-7.6,8.2-14.2,14.4-19.1l0,0c8.2-6.6,18.7-10.6,30.1-10.6c11.2,0,21.7,3.9,30.1,10.6c6.2,5,11.2,11.5,14.4,19.1
		c0,0.1,0,0.1,0.1,0.2c0.3,0.8,0.6,1.6,0.9,2.4H378h-33.6l0,0h-1.1c0,0-4.2,7-4.2,15.8c0,10,4.2,15.8,4.2,15.8h1.1l0,0h16.3h55.7
		h5.1h26.4c0.8,0,1.5-0.6,1.6-1.4l0.6-4.5c0.4-3.3,0.6-6.6,0.6-9.9c0-3.3-0.2-6.6-0.6-9.9C445.2,224.9,411.1,194.9,371,194.9"/>
	<path class="st0" d="M251.4,355.6L251.4,355.6l-14.2-17.2c19.5-14.6,31.9-37.9,31.9-63.8c0-40.2-30-74.2-69.9-79.1
		c-3.3-0.4-6.6-0.6-9.9-0.6s-6.6,0.2-9.9,0.6c-39.9,4.9-69.9,39-69.9,79.1s30,74.2,69.9,79.1c3.3,0.4,6.6,0.6,9.9,0.6
		s6.6-0.2,9.9-0.6c4.9-0.6,9.7-1.7,14.2-3.1l12.7,19.1c-7.6,3-15.7,5-24.2,6.1c-4.2,0.5-8.4,0.8-12.6,0.8c-4.2,0-8.4-0.3-12.6-0.8
		c-18.1-2.2-34.6-9.2-48.3-19.4c-0.6-0.5-1.5-0.4-2.1,0.2l-16.9,20.3c-0.5,0.7-0.4,1.6,0.2,2.2c18,13.7,39.6,23,63.4,25.9
		c5.4,0.7,10.8,1,16.3,1c5.4,0,10.9-0.3,16.3-1c23.8-2.9,45.4-12.1,63.3-25.8c0.7-0.5,0.8-1.5,0.2-2.1L251.4,355.6z M197.2,322.1
		c-2.6,0.4-5.3,0.7-7.9,0.7c-2.6,0-5.3-0.2-7.9-0.7l-0.7-0.1c-22.9-4.1-39.5-24.1-39.5-47.3c0-23.5,17-43.6,40.2-47.4
		c2.6-0.4,5.3-0.7,7.9-0.7c2.6,0,5.3,0.2,7.9,0.7l0.6,0.1c22.9,4.1,39.5,24.1,39.5,47.3C237.4,298.1,220.4,318.2,197.2,322.1"/>
	<path class="st0" d="M868.9,195.5c-3.3-0.4-6.6-0.6-9.9-0.6c-3.3,0-6.6,0.2-9.9,0.6c-39.9,4.9-69.9,39-69.9,79.1s30,74.2,69.9,79.1
		c3.3,0.4,6.6,0.6,9.9,0.6c3.3,0,6.6-0.2,9.9-0.6c39.9-4.9,69.9-39,69.9-79.1C938.7,234.5,908.8,200.5,868.9,195.5 M866.9,322.1
		c-2.6,0.4-5.3,0.7-7.9,0.7c-2.7,0-5.3-0.2-7.9-0.7l-0.7-0.1c-22.9-4.1-39.5-24.1-39.5-47.3c0-23.5,17-43.6,40.2-47.4
		c2.6-0.4,5.3-0.7,7.9-0.7c2.7,0,5.3,0.2,7.9,0.7l0.6,0.1c22.9,4.1,39.5,24.1,39.5,47.3C907.1,298.1,890.1,318.2,866.9,322.1"/>
	<path class="st0" d="M689.2,167.9c-11.9,0-21.5,9.6-21.5,21.5c0,11.9,9.6,21.5,21.5,21.5s21.5-9.6,21.5-21.5
		C710.7,177.5,701.1,167.9,689.2,167.9"/>
	<path class="st0" d="M681.9,355.6L681.9,355.6l-14.3-17.2c19.5-14.6,31.9-37.9,31.9-63.8c0-40.2-30-74.2-69.9-79.1
		c-3.3-0.4-6.6-0.6-9.9-0.6c-3.3,0-6.6,0.2-9.9,0.6c-39.9,4.9-69.9,39-69.9,79.1s30,74.2,69.9,79.1c3.3,0.4,6.6,0.6,9.9,0.6
		c3.3,0,6.6-0.2,9.9-0.6c4.9-0.6,9.7-1.7,14.2-3.1l12.7,19.1c-7.6,3-15.7,5-24.2,6.1c-4.2,0.5-8.4,0.8-12.6,0.8
		c-4.2,0-8.4-0.3-12.6-0.8c-18.1-2.2-34.6-9.2-48.3-19.4c-0.6-0.5-1.5-0.4-2.1,0.2l-16.9,20.3c-0.5,0.7-0.4,1.6,0.2,2.2
		c18,13.7,39.6,23,63.4,25.9c5.4,0.7,10.8,1,16.3,1c5.4,0,10.9-0.3,16.3-1c23.8-2.9,45.4-12.1,63.4-25.8c0.7-0.5,0.8-1.5,0.2-2.1
		L681.9,355.6z M627.8,322.1c-2.6,0.4-5.3,0.7-7.9,0.7c-2.7,0-5.3-0.2-7.9-0.7l-0.7-0.1c-22.9-4.1-39.5-24.1-39.5-47.3
		c0-23.5,17-43.6,40.2-47.4c2.6-0.4,5.3-0.7,7.9-0.7c2.7,0,5.3,0.2,7.9,0.7l0.6,0.1c22.9,4.1,39.5,24.1,39.5,47.3
		C667.9,298.1,650.9,318.2,627.8,322.1"/>
	<path class="st0" d="M1053.6,195.5c-3.3-0.4-6.6-0.6-9.9-0.6s-6.6,0.2-9.9,0.6c-7.2,0.9-14.1,2.8-20.6,5.4c-0.7,0.3-1.1,1-1.1,1.7
		v31.8c0,1.5,1.7,2.4,3,1.5c6-4.4,13-7.5,20.7-8.8c2.6-0.4,5.3-0.7,7.9-0.7c2.7,0,5.3,0.2,7.9,0.7l0.6,0.1
		c22.9,4.1,39.5,24.1,39.5,47.3c0,23.5-17,43.6-40.2,47.4c-2.6,0.4-5.3,0.7-7.9,0.7c-2.7,0-5.3-0.2-7.9-0.7l-0.7-0.1
		c-22.9-4.1-39.5-24.1-39.5-47.3l0,0v-1.6v-62v-53c0-0.9-0.7-1.6-1.6-1.6h-28.4c-0.9,0-1.6,0.7-1.6,1.6V273c0,0.1,0,0.1,0,0.2
		c0,0.5,0,0.9,0,1.4c0,40.2,30,74.2,69.9,79.1c3.3,0.4,6.6,0.6,9.9,0.6s6.6-0.2,9.9-0.6c39.9-4.9,69.9-38.9,69.9-79.1
		S1093.5,200.5,1053.6,195.5"/>
</g>
</svg>
