<?xml version="1.0" encoding="utf-8"?>
<!-- Generator: Adobe Illustrator 19.0.0, SVG Export Plug-In . SVG Version: 6.00 Build 0)  -->
<svg version="1.1" id="Capa_1" xmlns="http://www.w3.org/2000/svg" xmlns:xlink="http://www.w3.org/1999/xlink" x="0px" y="0px"
	 viewBox="109 156.3 1178.3 249.7" style="enable-background:new 109 156.3 1178.3 249.7;" xml:space="preserve">
<style type="text/css">
	.st0{fill:url(#SVGID_1_);}
</style>
<linearGradient id="SVGID_1_" gradientUnits="userSpaceOnUse" x1="352.0226" y1="621.4459" x2="1032.5005" y2="-59.0319">
	<stop  offset="7.262570e-02" style="stop-color:#B009BB"/>
	<stop  offset="0.3514" style="stop-color:#0053A6"/>
	<stop  offset="0.4883" style="stop-color:#00BE38"/>
	<stop  offset="0.6356" style="stop-color:#FFEF00"/>
	<stop  offset="0.8165" style="stop-color:#FF7400"/>
	<stop  offset="1" style="stop-color:#FF0000"/>
</linearGradient>
<path class="st0" d="M710.7,189.3c0,11.9-9.6,21.5-21.5,21.5c-11.9,0-21.5-9.6-21.5-21.5c0-11.9,9.6-21.5,21.5-21.5
	C701.1,167.9,710.7,177.5,710.7,189.3z M371,194.9c-40.2,0-74.2,30-79.1,69.9c-0.4,3.3-0.6,6.6-0.6,9.9s0.2,6.6,0.6,9.9
	c4.9,39.9,38.9,69.9,79.1,69.9c21.2,0,41.4-8.4,56.4-23.3l3.7-3.7c0.6-0.6,0.6-1.6,0-2.3L411,305c-0.6-0.6-1.6-0.6-2.3,0l-3.7,3.7
	c-5.2,5.2-11.5,9.1-18.4,11.5c-0.1,0.1-0.3,0.1-0.4,0.1c-4.8,1.6-9.9,2.5-15.2,2.5c-11.1,0-21.6-3.8-30-10.5
	c-6.3-5-11.3-11.5-14.5-19.2c0-0.1,0-0.1-0.1-0.2c-2.3-5.6-3.6-11.8-3.6-18.2c0-6.4,1.3-12.6,3.6-18.2c0-0.1,0-0.1,0.1-0.2
	c3.2-7.6,8.2-14.2,14.4-19.1c0,0,0,0,0,0c8.2-6.6,18.7-10.6,30.1-10.6c11.2,0,21.7,3.9,30.1,10.6c6.2,5,11.2,11.5,14.4,19.1
	c0,0.1,0,0.1,0.1,0.2c0.3,0.8,0.6,1.6,0.9,2.4h-38.4h-33.6h0h-1.1c0,0-4.2,7-4.2,15.8c0,10,4.2,15.8,4.2,15.8h1.1h0h16.3h55.7h5.1
	H448c0.8,0,1.5-0.6,1.6-1.4l0.6-4.5c0.4-3.3,0.6-6.6,0.6-9.9s-0.2-6.6-0.6-9.9C445.2,224.9,411.2,194.9,371,194.9z M258.8,167.9
	c-11.9,0-21.5,9.6-21.5,21.5c0,11.9,9.6,21.5,21.5,21.5c11.9,0,21.5-9.6,21.5-21.5C280.2,177.5,270.6,167.9,258.8,167.9z
	 M529.1,194.9h-22.6c-1,0-1.9-0.8-1.9-1.9v-35.2c0-0.9-0.7-1.6-1.6-1.6h-28.4c-0.9,0-1.6,0.7-1.6,1.6v171.6
	c0,13.7,11.2,24.9,24.9,24.9h31.2c0.9,0,1.6-0.7,1.6-1.6v-28.4c0-0.9-0.7-1.6-1.6-1.6h-22.6c-1,0-1.9-0.8-1.9-1.9l0-92.3
	c0-1,0.8-1.9,1.9-1.9h22.6c0.9,0,1.6-0.7,1.6-1.6v-28.6C530.7,195.6,530,194.9,529.1,194.9z M1053.6,195.5c-3.3-0.4-6.6-0.6-9.9-0.6
	c-3.3,0-6.6,0.2-9.9,0.6c-7.2,0.9-14.1,2.8-20.6,5.4c-0.7,0.3-1.1,1-1.1,1.7v31.8c0,1.5,1.7,2.4,3,1.5c6-4.4,13-7.5,20.7-8.8
	c2.6-0.4,5.3-0.7,7.9-0.7c2.7,0,5.3,0.2,7.9,0.7l0.6,0.1c22.9,4.1,39.5,24.1,39.5,47.3c0,23.5-17,43.6-40.2,47.4
	c-2.6,0.4-5.3,0.7-7.9,0.7c-2.7,0-5.3-0.2-7.9-0.7l-0.7-0.1c-22.9-4.1-39.5-24.1-39.5-47.3c0,0,0,0,0,0V273v-62v-53.2
	c0-0.9-0.7-1.6-1.6-1.6h-28.4c-0.9,0-1.6,0.7-1.6,1.6V273c0,0.1,0,0.1,0,0.2c0,0.5,0,0.9,0,1.4c0,40.2,30,74.2,69.8,79.1
	c3.3,0.4,6.6,0.6,9.9,0.6c3.3,0,6.6-0.2,9.9-0.6c39.9-4.9,69.8-38.9,69.8-79.1C1123.5,234.4,1093.5,200.4,1053.6,195.5z
	 M1287.1,195.6c-0.3-0.5-0.8-0.7-1.3-0.7h-33.9c-0.7,0-1.2,0.3-1.5,0.9l-45,104.9c-1,2.3-2.1,1.2-2.4,0.5l-45.1-105.4
	c-0.3-0.6-0.8-1-1.5-1h-32.5c-0.6,0-1,0.2-1.3,0.7c-0.3,0.5-0.4,1-0.1,1.5l65.4,144c0.2,0.5-0.2,1.1-0.4,1.6l-24.5,57.2
	c-0.2,0.5-0.2,1,0.1,1.5c0.3,0.5,0.8,0.7,1.3,0.7h28.5c0.7,0,1.2-0.3,1.5-0.9l92.9-204.1C1287.4,196.6,1287.4,196.1,1287.1,195.6z
	 M938.8,274.6c0,40.2-30,74.2-69.8,79.1c-3.3,0.4-6.6,0.6-9.9,0.6c-3.3,0-6.6-0.2-9.9-0.6c-39.9-4.9-69.8-38.9-69.8-79.1
	c0-40.2,30-74.2,69.8-79.1c3.3-0.4,6.6-0.6,9.9-0.6c3.3,0,6.6,0.2,9.9,0.6C908.8,200.4,938.8,234.4,938.8,274.6z M907.1,274.6
	c0-23.2-16.7-43.2-39.5-47.3l-0.6-0.1c-2.6-0.4-5.3-0.7-7.9-0.7c-2.7,0-5.3,0.2-7.9,0.7c-23.2,3.8-40.2,24-40.2,47.4
	c0,23.2,16.6,43.2,39.5,47.3l0.7,0.1c2.6,0.4,5.3,0.7,7.9,0.7c2.7,0,5.3-0.2,7.9-0.7C890.2,318.2,907.1,298.1,907.1,274.6z
	 M755.5,156.3h-28.4c-0.9,0-1.6,0.7-1.6,1.6v194.9c0,0.9,0.7,1.6,1.6,1.6h28.4c0.9,0,1.6-0.7,1.6-1.6V157.9
	C757.1,157,756.4,156.3,755.5,156.3z M699.5,379.1c-17.9,13.7-39.6,22.9-63.3,25.8c-5.4,0.7-10.8,1-16.3,1c-5.4,0-10.9-0.3-16.3-1
	c-23.8-2.9-45.5-12.2-63.4-25.9c-0.7-0.5-0.8-1.5-0.2-2.2l16.9-20.3c0.5-0.6,1.4-0.7,2.1-0.2c13.8,10.3,30.3,17.2,48.3,19.4
	c4.2,0.5,8.4,0.8,12.6,0.8c4.2,0,8.4-0.3,12.6-0.8c8.4-1,16.5-3.1,24.2-6.1L644,350.6c-4.6,1.4-9.3,2.5-14.2,3.1
	c-3.3,0.4-6.6,0.6-9.9,0.6s-6.6-0.2-9.9-0.6c-39.9-4.9-69.8-38.9-69.8-79.1c0-40.2,30-74.2,69.8-79.1c3.3-0.4,6.6-0.6,9.9-0.6
	s6.6,0.2,9.9,0.6c39.9,4.9,69.8,38.9,69.8,79.1c0,25.8-12.4,49.1-31.9,63.8l14.2,17.2c0,0,0,0,0,0l17.8,21.5
	C700.3,377.6,700.2,378.6,699.5,379.1z M668,274.6c0-23.2-16.7-43.2-39.5-47.3l-0.6-0.1c-2.6-0.4-5.3-0.7-7.9-0.7
	c-2.7,0-5.3,0.2-7.9,0.7c-23.2,3.8-40.2,24-40.2,47.4c0,23.2,16.6,43.2,39.5,47.3l0.7,0.1c2.6,0.4,5.3,0.7,7.9,0.7
	c2.7,0,5.3-0.2,7.9-0.7C651,318.2,668,298.1,668,274.6z M269,379.1c-17.9,13.7-39.6,22.9-63.3,25.8c-5.4,0.7-10.8,1-16.3,1
	c-5.4,0-10.9-0.3-16.3-1c-23.8-2.9-45.5-12.2-63.4-25.9c-0.7-0.5-0.8-1.5-0.2-2.2l16.9-20.3c0.5-0.6,1.4-0.7,2.1-0.2
	c13.8,10.3,30.3,17.2,48.3,19.4c4.2,0.5,8.4,0.8,12.6,0.8c4.2,0,8.4-0.3,12.6-0.8c8.5-1,16.6-3.1,24.2-6.1l-12.7-19.1
	c-4.6,1.4-9.3,2.5-14.2,3.1c-3.3,0.4-6.6,0.6-9.9,0.6c-3.3,0-6.6-0.2-9.9-0.6c-39.9-4.9-69.8-38.9-69.8-79.1
	c0-40.2,30-74.2,69.8-79.1c3.3-0.4,6.6-0.6,9.9-0.6c3.3,0,6.6,0.2,9.9,0.6c39.9,4.9,69.8,38.9,69.8,79.1c0,25.8-12.4,49.1-31.9,63.8
	l14.2,17.2c0,0,0,0,0,0l17.8,21.5C269.8,377.6,269.7,378.6,269,379.1z M237.5,274.6c0-23.2-16.7-43.2-39.5-47.3l-0.6-0.1
	c-2.6-0.4-5.3-0.7-7.9-0.7c-2.7,0-5.3,0.2-7.9,0.7c-23.2,3.8-40.2,24-40.2,47.4c0,23.2,16.6,43.2,39.5,47.3l0.7,0.1
	c2.6,0.4,5.3,0.7,7.9,0.7c2.7,0,5.3-0.2,7.9-0.7C220.5,318.2,237.5,298.1,237.5,274.6z"/>
</svg>
